<svg xmlns="http://www.w3.org/2000/svg" xmlns:xlink="http://www.w3.org/1999/xlink" width="250px"
				height="30px" viewBox="0 0 300 30" version="1.1">
				<defs>
					<clipPath id="clip1">
						<path d="M 0 2 L 148.421875 2 L 148.421875 30 L 0 30 Z M 0 2 " />
					</clipPath>
					<clipPath id="clip2">
						<path d="M 0 0 L 148.421875 0 L 148.421875 28 L 0 28 Z M 0 0 " />
					</clipPath>
					<clipPath id="clip3">
						<path d="M 151.578125 2 L 300 2 L 300 30 L 151.578125 30 Z M 151.578125 2 " />
					</clipPath>
					<clipPath id="clip4">
						<path d="M 151.578125 0 L 300 0 L 300 28 L 151.578125 28 Z M 151.578125 0 " />
					</clipPath>
				</defs>
				<g id="surface1">
					<g clip-path="url(#clip1)" clip-rule="nonzero">
						<path
							style=" stroke:none;fill-rule:nonzero;fill:rgb(92.156863%,81.568627%,54.117647%);fill-opacity:1;"
							d="M 0 13.765625 C 0 12.738281 0.261719 11.691406 0.8125 10.691406 C 4.652344 3.636719 18.835938 1.390625 30.226562 2.863281 C 41.324219 4.300781 50.976562 8.15625 58.945312 11.746094 L 61.320312 12.808594 C 78.261719 20.445312 95.777344 28.355469 117.875 28.636719 C 125.207031 28.726562 135.132812 27.535156 141.046875 23.910156 C 144.496094 21.792969 146.234375 19.0625 146.234375 15.800781 C 146.234375 15.425781 146.726562 15.117188 147.320312 15.117188 C 147.914062 15.117188 148.40625 15.425781 148.40625 15.800781 C 148.40625 19.445312 146.4375 22.507812 142.566406 24.890625 C 134.523438 29.835938 121.601562 30.0625 117.832031 30.007812 C 95.054688 29.71875 77.261719 21.691406 60.046875 13.925781 L 57.683594 12.863281 C 49.902344 9.363281 40.5 5.589844 29.792969 4.210938 C 15.734375 2.390625 5.433594 6.425781 2.867188 11.144531 C 1.128906 14.335938 2.722656 17.980469 6.664062 19.816406 C 8.695312 20.761719 11.519531 21.164062 14.214844 20.871094 C 16.664062 20.609375 18.675781 19.835938 19.910156 18.691406 C 20.242188 18.382812 20.921875 18.300781 21.417969 18.507812 C 21.910156 18.71875 22.054688 19.144531 21.707031 19.453125 C 20.140625 20.910156 17.621094 21.890625 14.578125 22.21875 C 11.300781 22.546875 7.855469 22.0625 5.359375 20.890625 C 1.941406 19.300781 0 16.574219 0 13.765625 Z M 0 13.765625 " />
					</g>
					<g clip-path="url(#clip2)" clip-rule="nonzero">
						<path
							style=" stroke:none;fill-rule:nonzero;fill:rgb(92.156863%,81.568627%,54.117647%);fill-opacity:1;"
							d="M 0 14.210938 C 0 10.5625 1.96875 7.5 5.839844 5.117188 C 13.894531 0.183594 26.820312 -0.046875 30.589844 0.0078125 C 53.367188 0.300781 71.160156 8.328125 88.375 16.089844 L 90.75 17.15625 C 98.53125 20.65625 107.9375 24.417969 118.644531 25.808594 C 132.699219 27.628906 143 23.589844 145.566406 18.882812 C 147.304688 15.691406 145.710938 12.046875 141.769531 10.210938 C 139.742188 9.265625 136.917969 8.863281 134.222656 9.15625 C 131.773438 9.417969 129.757812 10.191406 128.527344 11.335938 C 128.191406 11.644531 127.511719 11.726562 127.019531 11.519531 C 126.527344 11.308594 126.382812 10.882812 126.730469 10.574219 C 128.292969 9.117188 130.816406 8.136719 133.859375 7.808594 C 137.132812 7.453125 140.566406 7.945312 143.074219 9.109375 C 147.738281 11.292969 149.652344 15.582031 147.625 19.320312 C 143.785156 26.371094 129.597656 28.617188 118.210938 27.144531 C 107.109375 25.710938 97.460938 21.855469 89.488281 18.265625 L 87.113281 17.191406 C 70.175781 9.554688 52.65625 1.644531 30.558594 1.363281 C 23.214844 1.273438 13.289062 2.464844 7.375 6.101562 C 3.925781 8.21875 2.171875 10.945312 2.171875 14.210938 C 2.171875 14.582031 1.679688 14.890625 1.085938 14.890625 C 0.492188 14.890625 0 14.589844 0 14.210938 Z M 0 14.210938 " />
					</g>
					<g clip-path="url(#clip3)" clip-rule="nonzero">
						<path
							style=" stroke:none;fill-rule:nonzero;fill:rgb(92.156863%,81.568627%,54.117647%);fill-opacity:1;"
							d="M 300 13.640625 C 300 12.613281 299.738281 11.570312 299.1875 10.570312 C 295.347656 3.515625 281.164062 1.269531 269.773438 2.742188 C 258.675781 4.175781 249.023438 8.03125 241.054688 11.625 L 238.679688 12.6875 C 221.738281 20.324219 204.222656 28.230469 182.125 28.515625 C 174.792969 28.605469 164.867188 27.414062 158.953125 23.785156 C 155.503906 21.667969 153.765625 18.941406 153.765625 15.675781 C 153.765625 15.304688 153.273438 14.996094 152.679688 14.996094 C 152.085938 14.996094 151.59375 15.304688 151.59375 15.675781 C 151.59375 19.324219 153.5625 22.386719 157.433594 24.769531 C 165.476562 29.714844 178.402344 29.941406 182.167969 29.886719 C 204.945312 29.597656 222.738281 21.570312 239.953125 13.804688 L 242.316406 12.742188 C 250.097656 9.242188 259.5 5.46875 270.207031 4.085938 C 284.265625 2.269531 294.566406 6.304688 297.132812 11.023438 C 298.871094 14.214844 297.277344 17.859375 293.335938 19.695312 C 291.304688 20.640625 288.480469 21.042969 285.785156 20.75 C 283.335938 20.488281 281.324219 19.714844 280.089844 18.570312 C 279.757812 18.257812 279.074219 18.175781 278.582031 18.386719 C 278.089844 18.597656 277.945312 19.023438 278.292969 19.332031 C 279.859375 20.785156 282.378906 21.769531 285.421875 22.097656 C 288.699219 22.421875 292.144531 21.941406 294.640625 20.769531 C 298.058594 19.179688 300 16.449219 300 13.640625 Z M 300 13.640625 " />
					</g>
					<g clip-path="url(#clip4)" clip-rule="nonzero">
						<path
							style=" stroke:none;fill-rule:nonzero;fill:rgb(92.156863%,81.568627%,54.117647%);fill-opacity:1;"
							d="M 300 14.210938 C 300 10.5625 298.03125 7.5 294.160156 5.117188 C 286.105469 0.183594 273.179688 -0.046875 269.410156 0.0078125 C 246.632812 0.300781 228.839844 8.328125 211.625 16.089844 L 209.25 17.15625 C 201.46875 20.65625 192.066406 24.417969 181.355469 25.808594 C 167.300781 27.628906 157 23.589844 154.433594 18.882812 C 152.695312 15.691406 154.289062 12.046875 158.230469 10.210938 C 160.257812 9.265625 163.085938 8.863281 165.777344 9.15625 C 168.226562 9.417969 170.242188 10.191406 171.472656 11.335938 C 171.808594 11.644531 172.488281 11.726562 172.980469 11.519531 C 173.472656 11.308594 173.617188 10.882812 173.269531 10.574219 C 171.707031 9.117188 169.183594 8.136719 166.140625 7.808594 C 162.867188 7.453125 159.433594 7.945312 156.925781 9.109375 C 152.261719 11.292969 150.347656 15.582031 152.375 19.320312 C 156.214844 26.371094 170.402344 28.617188 181.789062 27.144531 C 192.890625 25.710938 202.542969 21.855469 210.511719 18.265625 L 212.886719 17.191406 C 229.824219 9.554688 247.34375 1.644531 269.441406 1.363281 C 276.785156 1.273438 286.714844 2.464844 292.625 6.101562 C 296.074219 8.21875 297.824219 10.945312 297.824219 14.210938 C 297.824219 14.582031 298.320312 14.890625 298.914062 14.890625 C 299.507812 14.890625 300 14.589844 300 14.210938 Z M 300 14.210938 " />
					</g>
				</g>
			</svg>
