<svg width="134" height="130" viewBox="0 0 134 130" fill="none" xmlns="http://www.w3.org/2000/svg">
<path d="M64.8355 8.58553C67.6268 9.59761 70.4696 9.60618 73.3812 9.88922C73.4327 9.8978 73.4413 9.81203 73.3898 9.80345C67.3434 8.79995 62.6969 5.74658 58.4799 1.44956C57.0198 -0.0428234 54.907 2.44448 56.6763 3.78247C59.2013 5.69512 61.8295 7.50484 64.8355 8.58553Z" fill="#474035"/>
<path d="M73.3641 7.805C73.4156 7.81358 73.4414 7.73639 73.3898 7.71923C71.423 7.17031 69.6194 5.70366 68.2023 4.28848C67.541 3.62805 66.9226 2.92475 66.4073 2.14425C65.9263 1.41522 65.7545 0.926333 64.8098 0.789102C64.2343 0.703333 63.4871 0.926333 63.3755 1.60391C63.3583 1.69825 63.3411 1.7926 63.3239 1.88694C63.2381 2.3844 63.281 2.98479 63.7104 3.34502C66.6306 5.74655 69.6538 7.14458 73.3641 7.805Z" fill="#474035"/>
<path d="M71.6634 5.61781C72.5051 6.33827 73.3725 6.91292 74.3516 7.4018C74.386 7.41896 74.4289 7.38465 74.4118 7.34176C73.9737 6.587 73.5529 5.75504 73.2008 4.94881C72.8314 4.11685 72.7198 3.37924 72.6081 2.5044C72.3333 0.325865 69.2242 0.703248 69.6021 2.90751C69.7911 3.97962 70.8818 4.94023 71.6634 5.61781Z" fill="#474035"/>
<path d="M90.3523 10.4295C84.0998 14.5035 76.9626 16.6477 69.4991 16.8364C69.4476 16.8364 69.4476 16.9136 69.4991 16.9136C77.1859 17.634 84.7611 16.1074 91.6492 12.6423C93.135 11.9133 91.7523 9.5203 90.3523 10.4295Z" fill="#474035"/>
<path d="M68.194 18.3374C73.3214 19.8469 78.2083 20.8676 83.5934 20.5674C84.1688 20.5331 84.7872 20.1643 84.916 19.5639C85.0191 19.0922 84.9933 18.9292 84.7786 18.5089C84.478 17.9343 83.8081 17.7799 83.2241 17.8828C78.3543 18.7062 73.1067 19.1179 68.2111 18.2688C68.1596 18.2516 68.1338 18.3288 68.194 18.3374Z" fill="#474035"/>
<path d="M67.2148 19.6068C69.7055 21.5966 72.8146 23.6122 76.104 23.7666C77.4782 23.8266 77.6156 21.8882 76.4132 21.4766C73.5102 20.4902 70.2551 20.3272 67.2921 19.4696C67.2233 19.4524 67.1461 19.5553 67.2148 19.6068Z" fill="#474035"/>
<path d="M28.8579 10.2665C22.8201 10.1036 16.6621 8.97141 11.8181 5.0775C11.7751 5.0432 11.715 5.10324 11.7579 5.13754C16.5762 9.7176 22.0901 13.3456 28.8579 14.0404C31.237 14.2891 31.3229 10.3351 28.8579 10.2665Z" fill="#474035"/>
<path d="M27.7755 5.58351C22.3732 5.50632 17.0225 5.37767 12.0325 2.96756C11.981 2.94183 11.938 3.01044 11.9896 3.04475C16.7649 6.02951 21.9868 8.71408 27.7755 8.79985C29.8454 8.83416 29.8454 5.61782 27.7755 5.58351Z" fill="#474035"/>
<path d="M26.5816 4.4686C29.4159 3.51657 27.0969 -0.626071 24.778 1.38092C23.4038 2.56453 20.7585 2.43588 19.0408 2.44446C17.0225 2.45303 14.9784 2.29865 13.0202 1.80119C12.9686 1.78404 12.9429 1.86123 12.9944 1.88696C15.4078 2.82184 17.7783 3.71384 20.3377 4.17699C22.3388 4.52864 24.6062 5.12902 26.5816 4.4686Z" fill="#474035"/>
<path d="M37.3864 36.1173C37.249 35.4912 37.103 34.8737 36.9055 34.2647C36.3129 32.4464 35.5141 30.6796 34.389 29.1186C31.4517 25.0531 27.0972 23.9295 22.6226 22.5916C23.9624 27.0601 25.0875 31.4086 29.1585 34.3419C30.7216 35.4655 32.4909 36.2631 34.3117 36.8549C34.9215 37.0522 35.5399 37.198 36.1668 37.3352C36.4245 37.3953 37.438 37.6783 37.1803 37.5411C37.3864 37.644 37.584 37.704 37.7729 37.7126C37.7643 37.5239 37.7128 37.3267 37.6011 37.1208C37.73 37.3781 37.438 36.3746 37.3864 36.1173ZM31.1597 32.9696C27.2261 31.0484 25.4139 27.3174 23.6103 23.5779C27.3549 25.379 31.091 27.1888 33.0148 31.117C33.4271 31.9575 33.6676 32.8752 33.8651 33.8101C32.9203 33.6129 32.0014 33.3727 31.1597 32.9696Z" fill="#474035"/>
<path d="M40.9251 37.8756C40.8735 36.7777 41.0711 35.7056 41.114 34.6078C41.1655 33.1754 40.9852 31.7517 40.1263 30.6538C41.8956 28.7498 41.3974 25.988 39.3619 24.487C39.4564 24.5556 40.3582 22.6344 40.4269 22.4114C40.8993 20.8762 40.7619 19.2208 40.238 17.7199C39.9975 17.0251 39.0785 16.4419 38.3742 16.9651C35.1535 19.3752 30.2494 19.5896 26.4188 19.1351C23.0779 18.7405 19.7283 17.7885 16.5591 16.5363C17.8216 19.7011 18.7664 23.0461 19.1614 26.374C19.6166 30.1992 19.3933 35.1052 16.9885 38.313C16.4646 39.0163 17.0572 39.934 17.7443 40.1742C19.2473 40.6888 20.9049 40.826 22.4423 40.3629C22.6656 40.2943 24.5895 39.3937 24.5208 39.2993C26.0238 41.3321 28.7979 41.8381 30.696 40.0627C31.7953 40.9289 33.221 41.1091 34.6553 41.049C35.7461 41.0061 36.8283 40.8089 37.9276 40.8603C39.3276 40.9289 40.5901 41.3578 41.887 41.8124C41.4232 40.5344 40.9938 39.265 40.9251 37.8756ZM36.9142 39.6167C34.6725 39.3851 32.9806 39.8397 31.0825 38.3559C30.7647 38.1071 30.4297 38.1243 30.1807 38.2701C30.0175 38.2958 29.8543 38.3816 29.7169 38.5446C28.3599 40.0369 26.2471 40.5687 24.5981 39.2393C25.517 38.5188 26.2471 37.5582 26.6336 36.3746C26.6421 36.3489 26.6078 36.3403 26.5906 36.3575C25.0962 38.7676 22.5797 39.6338 20.132 38.6989C20.7332 37.0179 20.819 34.9337 20.8706 33.2526C20.9393 31.0398 20.7417 28.7755 20.3638 26.597C19.7798 23.2262 18.5946 20.13 17.1431 17.1195C20.1577 18.569 23.2496 19.7526 26.6336 20.3358C28.8151 20.7132 31.0825 20.9105 33.2983 20.8419C34.9817 20.7904 37.0688 20.696 38.7521 20.1042C39.6883 22.5487 38.8208 25.0617 36.4074 26.5541C36.3903 26.5626 36.3988 26.597 36.4246 26.597C37.6098 26.211 38.5718 25.482 39.2932 24.5642C40.6245 26.211 40.092 28.3209 38.5975 29.6761C38.4429 29.8219 38.3571 29.9848 38.3227 30.1392C38.1681 30.3879 38.1595 30.7224 38.4086 31.0398C39.8944 32.9353 39.4392 34.6249 39.6711 36.8635C39.8085 38.2101 40.1521 39.5052 40.7447 40.6888C39.5595 40.097 38.254 39.7539 36.9142 39.6167Z" fill="#474035"/>
<path d="M7.57504 4.5629C7.86706 3.98825 7.50633 3.13914 7.03396 2.88183C8.82039 2.32433 9.121 5.65217 8.97499 6.40694C8.29649 6.46697 7.68669 6.74143 7.16279 7.14455C6.75912 7.66774 6.48428 8.2767 6.42416 8.95427C5.66836 9.10008 2.32738 8.79989 2.89423 7.0159C3.15189 7.48762 4.00217 7.84785 4.57761 7.55624C6.33828 6.67282 4.71502 4.51144 3.2206 4.54575C0.841547 4.60579 0.403526 7.41043 1.94089 8.82562C3.34084 10.1122 4.89539 10.155 6.48428 9.97492C6.86219 11.8618 8.64003 13.0111 9.89398 14.3234C13.4926 18.0801 16.2753 22.7974 16.3526 28.1151C16.4385 33.6986 13.6558 41.555 6.65606 39.6767C4.0537 38.9734 1.75194 36.1602 4.02793 33.69C5.04998 32.5836 7.05972 32.2577 8.01306 33.6472C8.57132 34.4534 8.63145 35.7485 7.5321 36.1173C6.98243 36.306 5.69413 36.2374 6.21804 35.3454C6.82783 34.2904 5.19599 33.3384 4.58619 34.3933C3.28931 36.5976 5.35917 38.373 7.6094 38.0728C10.2203 37.7298 11.0792 34.7107 9.53325 32.7552C6.46711 28.8698 0.815781 32.9953 1.90654 37.2237C3.1433 42.0354 10.2891 42.224 13.5871 39.711C16.0778 37.8069 17.0741 34.1189 17.4949 31.1684C17.9415 28.0293 17.5121 24.8644 16.3355 21.9311C15.3134 19.4009 13.7846 17.1109 11.9982 15.061C10.7443 13.6287 8.33943 11.8018 7.49774 9.83769C8.21919 9.73477 8.94922 9.64042 9.66208 9.63185C9.66208 8.91997 9.76515 8.19093 9.86821 7.46189C11.835 8.30243 13.6644 10.704 15.0987 11.9562C17.1514 13.7488 19.4445 15.2754 21.9782 16.2875C24.9155 17.4711 28.0933 17.8914 31.2282 17.4454C34.1827 17.0251 37.8844 16.0302 39.7825 13.5429C42.2989 10.2494 42.11 3.11341 37.2917 1.87833C33.049 0.789069 28.9178 6.43267 32.8171 9.49462C34.7753 11.0299 37.7985 10.1808 38.142 7.57339C38.4426 5.31767 36.6562 3.25922 34.4575 4.55433C33.4097 5.17186 34.3544 6.80147 35.4108 6.18394C36.3041 5.66932 36.3728 6.94728 36.1838 7.50478C35.8145 8.60262 34.5176 8.54258 33.7103 7.98509C32.3103 7.0502 32.6367 5.04321 33.7446 4.02256C36.2182 1.74968 39.0352 4.04829 39.7395 6.64709C41.6204 13.6373 33.7532 16.4162 28.162 16.3304C22.8285 16.2532 18.1047 13.4743 14.3515 9.88058C13.0374 8.61977 11.8865 6.85293 9.99704 6.47555C10.1774 4.88883 10.143 3.33641 8.84616 1.93837C7.42045 0.403109 4.61196 0.849108 4.55184 3.21633C4.51749 4.70871 6.68182 6.32974 7.57504 4.5629ZM8.48544 8.47397C8.05601 8.57689 7.63516 8.69697 7.20573 8.79989C7.1542 8.34531 7.22291 7.88216 7.42045 7.41043C7.89282 7.21316 8.35661 7.14455 8.82039 7.19601C8.70874 7.62486 8.5885 8.04512 8.48544 8.47397Z" fill="#474035"/>
<path d="M53.2412 15.284C54.5037 15.6013 55.6632 15.8329 56.8055 16.5276C57.8705 17.1795 58.8152 18.0028 59.9489 18.5432C61.452 19.2551 62.7317 19.3065 64.1917 18.526C64.2089 18.5175 64.2003 18.4832 64.1831 18.4832C61.1771 18.8262 59.5882 16.8021 57.4496 15.1296C56.2301 14.1776 54.8043 13.3799 53.2498 13.8774C52.5885 14.1004 52.5198 15.1039 53.2412 15.284Z" fill="#474035"/>
<path d="M46.7654 29.6761C47.8303 28.6898 48.569 27.4804 48.9812 26.1424C49.8916 27.8921 53.1639 28.7241 54.7871 28.3124C56.0153 27.0773 56.711 25.8079 56.5993 24.0239C56.565 23.4664 56.4619 22.9089 56.3073 22.3686C59.4594 23.1662 63.3328 22.0941 64.1745 18.6119C64.1831 18.5948 64.1574 18.5776 64.1402 18.5948C61.6151 21.0906 58.6692 22.4801 55.3282 20.3273C54.4779 19.7784 53.808 20.9791 54.5381 21.6824C55.6889 22.7974 55.9037 26.2282 54.7528 28.2781C53.0952 27.9779 50.321 27.0344 49.3334 23.5694C49.0671 22.6345 47.8561 22.8832 47.8733 24.2212C47.7273 25.7222 47.2291 27.206 46.3273 28.4239C45.1507 30.0106 43.8023 30.2164 42.033 30.1564C45.8034 28.6983 42.8318 22.7889 45.3654 20.3873C46.1985 19.5982 44.8673 18.286 44.1115 19.1351C41.1913 22.4458 44.8415 27.1373 41.5864 30.165C41.5177 30.2508 41.4404 30.388 41.5864 30.5166C43.098 31.786 45.4513 30.8854 46.7654 29.6761Z" fill="#474035"/>
<path d="M44.3343 18.0287C44.2227 18.3718 44.5662 18.6376 44.884 18.5776C47.8557 17.9944 50.4323 16.8108 52.4506 14.5122C52.6997 14.2291 52.5623 13.6287 52.1071 13.6802C48.4054 14.0919 45.8459 12.1792 44.6693 8.72275C44.884 7.9251 45.1846 7.26468 45.5539 6.74149C44.9785 8.33679 45.6398 10.3952 47.1085 11.5703C49.2385 13.2685 52.8543 13.217 53.4125 10.0007C53.8849 7.29041 51.6519 4.12553 48.7231 5.67795C46.6705 6.75864 46.7907 10.1379 49.3759 10.3352C50.3979 10.4124 51.4543 9.82917 51.5402 8.73132C51.6175 7.72783 50.7587 7.05025 49.9341 7.78787C49.5305 8.1481 50.1317 8.74848 50.5353 8.38825C50.7672 8.56836 50.7844 8.75705 50.5955 8.95432C50.5268 9.23736 50.3378 9.4089 50.0286 9.46894C49.7194 9.58901 49.3329 9.54613 49.0323 9.43463C47.8557 9.01436 47.8729 7.51341 48.6802 6.73291C49.4618 5.97814 50.9132 5.9953 51.712 6.70718C52.4077 7.34187 52.6138 8.52548 52.5623 9.42605C52.4334 11.819 50.1574 12.3165 48.3281 11.3987C46.6447 10.5496 45.1589 8.12236 45.8374 6.38126C48.1735 3.67096 52.6567 5.06041 55.7916 6.74149C59.4504 8.70559 62.7398 10.4724 66.828 11.4674C70.4782 12.3508 74.6351 13.3371 78.311 12.0849C80.9477 11.1843 83.0519 8.98005 83.1808 6.10679C83.2924 3.72242 81.798 1.33804 79.3502 0.90062C77.1601 0.506083 74.4289 1.6125 73.8879 3.97115C73.2952 6.60425 75.6228 8.54263 78.0705 8.24244C80.3551 7.96798 82.4078 5.90095 80.8275 3.66238C79.2128 1.37235 75.8718 3.14777 76.7221 5.72941C76.9712 6.48418 78.1736 6.16683 77.9245 5.39491C77.435 3.85107 81.1367 4.40857 79.6594 6.14968C79.2729 6.60425 78.4656 6.84441 77.8988 6.94733C75.1075 7.41906 73.905 3.89396 76.37 2.41873C79.6337 0.454621 82.9145 3.77388 82.0213 7.1446C80.9563 11.1672 76.3528 11.9048 72.8057 11.596C68.8034 11.2444 64.406 10.198 60.7988 8.43971C56.8738 6.51849 51.5059 1.92127 46.8938 4.40857C44.6779 5.60076 43.5785 8.0366 43.5013 10.4639C43.4583 11.7847 43.6902 13.097 43.9479 14.3835C44.1712 15.5156 44.6865 16.888 44.3343 18.0287ZM44.5319 9.30598C44.9871 12.6081 47.6582 14.6322 50.9047 14.7008C49.3329 16.1761 47.452 17.0681 45.322 17.5741C45.3908 16.7593 45.176 15.9102 45.0214 15.1211C44.6349 13.2256 44.1712 11.2444 44.5319 9.30598Z" fill="#474035"/>
<path d="M99.9631 3.71374C92.6026 5.67785 86.8826 11.1756 79.6939 13.5257C71.7751 16.1074 62.2847 14.8637 55.3193 10.2493C55.2935 10.2322 55.2764 10.2751 55.2935 10.2836C59.5277 13.2341 63.9595 15.0696 69.1384 15.4984C74.3174 15.9272 79.3847 14.8809 84.0569 12.6509C89.6911 9.94914 94.7498 5.86654 100.951 4.47709C103.862 3.82524 109.101 3.30205 110.553 6.71566C111.446 8.82557 110.347 11.7074 108.088 12.3078C105.271 13.054 104.378 10.3951 104.618 9.65753C105.005 7.39323 108.191 8.02792 106.86 10.0435C106.319 10.5238 107.117 11.3214 107.658 10.8411C108.878 9.75188 108.723 7.65911 107.032 7.12735C105.219 6.56127 103.63 8.19946 103.484 9.92341C103.313 11.9133 104.987 13.3885 106.877 13.5429C109.144 13.7316 111.051 11.9647 111.652 9.88053C113.731 2.74455 104.403 2.53013 99.9631 3.71374Z" fill="#474035"/>
<path d="M83.7392 9.80345C83.4901 10.4553 84.4864 10.7898 84.8042 10.2409C85.5858 8.91145 95.2222 2.85616 99.2675 2.81328C99.4221 2.81328 99.4392 2.62459 99.3018 2.53882C97.8761 1.62967 94.8529 1.08932 92.826 1.30374C91.4174 1.45813 88.5574 2.2129 87.4924 3.70528C86.5992 2.1014 84.9845 1.07217 83.0607 1.08932C83.0178 1.08932 83.0006 1.13221 83.0092 1.16651C82.992 1.17509 82.9834 1.20082 83.0006 1.21798C84.7784 3.90254 84.8729 6.82727 83.7392 9.80345ZM83.1294 1.21798C84.933 1.66397 86.4961 3.10489 86.7968 4.94893C86.9084 5.65223 87.501 5.50642 87.5526 5.37777C89.1415 1.38951 97.0602 1.83551 98.6577 2.47878C95.9179 2.35013 87.501 6.05535 85.3281 8.2253C85.7403 5.6265 85.1391 3.27643 83.1294 1.21798Z" fill="#474035"/>
<path d="M9.81699 73.2896C9.82558 73.341 9.90288 73.3239 9.90288 73.281C9.61945 70.3734 9.61086 67.5345 8.5974 64.747C7.50665 61.7451 5.70303 59.1206 3.78776 56.5989C2.44794 54.8321 -0.0427701 56.942 1.45165 58.4001C5.75456 62.6113 8.81212 67.2514 9.81699 73.2896Z" fill="#474035"/>
<path d="M2.15578 66.3166C2.93734 66.8312 3.64161 67.4487 4.30294 68.1091C5.71147 69.5243 7.18872 71.3255 7.73839 73.2896C7.75557 73.341 7.83287 73.3239 7.82428 73.2639C7.16295 69.5501 5.763 66.531 3.35819 63.6234C3.00605 63.1946 2.40485 63.1517 1.89812 63.2375C1.80364 63.2546 1.70917 63.2718 1.61469 63.2889C0.936188 63.409 0.712883 64.1466 0.79877 64.7213C0.936188 65.6647 1.42574 65.8363 2.15578 66.3166Z" fill="#474035"/>
<path d="M4.95556 73.1008C5.76289 73.4525 6.59599 73.8727 7.35179 74.3102C7.39473 74.3359 7.42908 74.2844 7.41191 74.2501C6.93094 73.2724 6.34692 72.4061 5.62547 71.5656C4.95556 70.7765 3.98504 69.6958 2.91146 69.5071C0.704178 69.1297 0.317689 72.2346 2.50779 72.509C3.38383 72.6205 4.12246 72.732 4.95556 73.1008Z" fill="#474035"/>
<path d="M12.6684 91.5327C16.1296 84.654 17.667 77.0892 16.9456 69.4129C16.937 69.3614 16.8683 69.3614 16.8683 69.4129C16.6793 76.8576 14.5236 83.9936 10.4525 90.2376C9.53356 91.627 11.9298 93.0079 12.6684 91.5327Z" fill="#474035"/>
<path d="M18.5345 84.6625C18.9554 84.8769 19.1185 84.9027 19.5909 84.7998C20.2007 84.6711 20.57 84.0536 20.5958 83.4789C20.905 78.1012 19.8743 73.2209 18.3627 68.1005C18.3456 68.0491 18.2683 68.0662 18.2769 68.1263C19.1357 73.0151 18.7235 78.2556 17.8904 83.1187C17.8045 83.6933 17.9505 84.3623 18.5345 84.6625Z" fill="#474035"/>
<path d="M19.6335 67.1228C19.5819 67.0542 19.4789 67.1314 19.496 67.2C20.3549 70.159 20.5095 73.4097 21.5058 76.3087C21.918 77.5009 23.8591 77.3722 23.799 75.9999C23.653 72.7149 21.626 69.6101 19.6335 67.1228Z" fill="#474035"/>
<path d="M14.0684 28.8184C13.3727 22.0598 9.73971 16.5534 5.15338 11.7418C5.11043 11.6989 5.0589 11.759 5.09326 11.8018C8.98391 16.6392 10.1176 22.7888 10.2894 28.8184C10.3495 31.28 14.3089 31.1942 14.0684 28.8184Z" fill="#474035"/>
<path d="M2.97147 12.0162C5.38488 16.9994 5.51371 22.3428 5.59101 27.7376C5.62536 29.8132 8.84611 29.8047 8.81175 27.7376C8.72586 21.9568 6.03762 16.7421 3.04877 11.9733C3.01442 11.9218 2.94571 11.9647 2.97147 12.0162Z" fill="#474035"/>
<path d="M4.47451 26.5455C5.13584 24.5728 4.53463 22.3085 4.17391 20.3187C3.71871 17.7628 2.8169 15.3955 1.88074 12.9854C1.86356 12.934 1.78627 12.9511 1.79485 13.0112C2.28441 14.9667 2.44759 17.008 2.439 19.0236C2.43041 20.7389 2.55924 23.3806 1.37401 24.7529C-0.635732 27.0687 3.52117 29.3759 4.47451 26.5455Z" fill="#474035"/>
<path d="M4.20845 4.20273C4.60353 3.62808 4.41458 2.71035 4.02809 2.18716C3.40112 1.32947 2.24165 0.797703 1.19383 0.832011C1.09077 0.832011 0.987707 0.857741 0.901821 0.900626C0.858877 0.986395 0.833112 1.08932 0.833112 1.19224C0.798757 2.23862 1.33125 3.3965 2.18153 4.02262C2.70544 4.40858 3.63301 4.59727 4.20845 4.20273Z" fill="#474035"/>
<path d="M16.5505 56.7276C15.8548 55.5955 15.6229 54.4376 15.3052 53.1682C15.1248 52.4478 14.1199 52.5078 13.9052 53.1682C13.4071 54.7206 14.1972 56.1444 15.1592 57.3623C16.8339 59.498 18.8523 61.0847 18.5173 64.0866C18.5173 64.1123 18.5517 64.1123 18.5603 64.0952C19.3418 62.6371 19.2903 61.3592 18.5774 59.8582C18.0278 58.7346 17.2033 57.7912 16.5505 56.7276Z" fill="#474035"/>
<path d="M30.55 41.5293C30.4212 41.3835 30.2838 41.4607 30.1979 41.5293C27.1747 44.7713 22.4767 41.1262 19.1529 44.0509C18.3026 44.8057 19.6167 46.1351 20.4068 45.3031C22.8117 42.7729 28.7292 45.7405 30.1893 41.9753C30.2494 43.7421 30.0433 45.0887 28.4544 46.2637C27.2348 47.1643 25.749 47.6618 24.2545 47.8076C22.9147 47.7904 22.6656 48.9998 23.6018 49.2656C27.0802 50.252 28.0164 53.0309 28.317 54.6777C26.2643 55.827 22.8288 55.6125 21.7123 54.4632C21.008 53.7342 19.8056 54.4032 20.3553 55.2523C22.5111 58.5887 21.1197 61.5306 18.6204 64.0522C18.6032 64.0694 18.6204 64.0951 18.6376 64.0865C22.1332 63.2374 23.2067 59.3692 22.3994 56.2301C22.9405 56.393 23.4987 56.4874 24.057 56.5217C25.8349 56.6332 27.1146 55.947 28.3513 54.712C28.7636 53.0909 27.9305 49.8231 26.1784 48.914C27.5182 48.5023 28.7292 47.7647 29.7169 46.7011C30.9279 45.3889 31.8297 43.0388 30.55 41.5293Z" fill="#474035"/>
<path d="M0.88453 79.2334C1.32255 81.6778 3.71019 83.1702 6.09784 83.0587C8.97503 82.93 11.1823 80.8287 12.0841 78.1956C13.3381 74.5246 12.3504 70.3649 11.4657 66.7283C10.4695 62.6371 8.70019 59.3521 6.7334 55.7069C5.05002 52.5764 3.65866 48.0907 6.37267 45.7663C8.11617 45.0887 10.5468 46.5725 11.397 48.2536C12.316 50.0805 11.8179 52.3448 9.42164 52.4735C8.52842 52.5249 7.3346 52.3191 6.69904 51.6243C5.97759 50.8353 5.96901 49.3772 6.72481 48.5967C7.50637 47.7905 9.00939 47.7819 9.43023 48.9483C9.54188 49.2485 9.58483 49.6345 9.46458 49.9433C9.40446 50.252 9.23269 50.4407 8.94927 50.5093C8.74314 50.698 8.55419 50.6809 8.38242 50.4493C8.74314 50.0462 8.14193 49.4458 7.78121 49.8489C7.05118 50.6723 7.72109 51.53 8.72596 51.4528C9.82531 51.367 10.4093 50.3121 10.332 49.2914C10.1345 46.7098 6.75916 46.5983 5.6684 48.6396C4.11386 51.5643 7.28307 53.7943 9.99708 53.3226C13.2178 52.7651 13.2694 49.1456 11.5688 47.0271C10.3922 45.5605 8.33947 44.8915 6.7334 45.4747C7.2573 45.1059 7.91863 44.8057 8.71737 44.5913C12.1786 45.7663 14.0939 48.3222 13.6816 52.0189C13.6301 52.4735 14.2313 52.6107 14.5147 52.362C16.8251 50.355 18.0103 47.7733 18.5857 44.8057C18.6458 44.4884 18.3882 44.1539 18.036 44.2568C16.8938 44.617 15.5196 44.1024 14.3859 43.8708C13.0976 43.6135 11.7835 43.3819 10.4609 43.4248C8.03028 43.502 5.59111 44.5999 4.39728 46.8127C1.90658 51.4099 6.51009 56.7705 8.41677 60.6815C10.1774 64.2838 11.2253 68.6838 11.5774 72.672C11.8866 76.2143 11.148 80.8115 7.11988 81.875C3.74455 82.767 0.412155 79.4907 2.38754 76.2314C3.87338 73.7699 7.39472 74.9706 6.92235 77.7581C6.82787 78.3328 6.5788 79.1304 6.1236 79.5164C4.38011 81.0002 3.82185 77.295 5.3678 77.7839C6.14078 78.024 6.45856 76.8318 5.70276 76.5831C3.11758 75.7254 1.34832 79.0618 3.6329 80.6829C5.86594 82.261 7.93581 80.2197 8.21923 77.9297C8.51983 75.4853 6.57021 73.1609 3.94209 73.7527C1.59739 74.3188 0.498041 77.0463 0.88453 79.2334ZM15.1417 44.9515C15.9318 45.1059 16.7735 45.3203 17.598 45.2517C17.0999 47.3788 16.2067 49.2571 14.7208 50.8267C14.6521 47.5932 12.6252 44.9172 9.31858 44.4626C11.2596 44.111 13.2436 44.5741 15.1417 44.9515Z" fill="#474035"/>
<path d="M3.71864 99.8265C2.53341 104.261 2.73954 113.567 9.88529 111.5C11.9723 110.891 13.7416 108.995 13.5526 106.731C13.398 104.844 11.9208 103.171 9.92823 103.343C8.2105 103.489 6.56148 105.076 7.12833 106.885C7.66083 108.566 9.75646 108.729 10.8472 107.511C11.3282 106.971 10.5294 106.173 10.0485 106.714C8.03014 108.043 7.40317 104.861 9.66198 104.475C10.4006 104.244 13.0631 105.127 12.3159 107.94C11.7147 110.205 8.82888 111.302 6.71608 110.402C3.2978 108.952 3.8217 103.72 4.47444 100.813C5.8658 94.6203 9.96258 89.5685 12.6594 83.9421C14.9011 79.2762 15.9403 74.2159 15.5108 69.044C15.0814 63.8721 13.2434 59.4465 10.289 55.2181C10.2718 55.1923 10.2374 55.2181 10.2546 55.2438C14.8753 62.1997 16.1292 71.6771 13.5355 79.585C11.1908 86.7639 5.68544 92.4761 3.71864 99.8265Z" fill="#474035"/>
<path d="M9.81673 83.6247C6.83647 84.7569 3.90775 84.6539 1.21091 82.8871C1.19374 82.8699 1.16797 82.8871 1.15938 82.8957C1.12503 82.8871 1.08208 82.9128 1.08208 82.9471C1.0735 84.8684 2.10413 86.4808 3.70162 87.3728C2.21579 88.4364 1.4514 91.2839 1.2968 92.6991C1.08208 94.7232 1.62317 97.7509 2.53357 99.166C2.61945 99.3033 2.8084 99.2861 2.8084 99.1317C2.85134 95.092 8.92352 85.4687 10.2462 84.6882C10.8044 84.3795 10.4609 83.3846 9.81673 83.6247ZM2.47344 98.5228C1.8293 96.9275 1.38269 89.0196 5.37641 87.4329C5.50524 87.3814 5.65124 86.7896 4.94697 86.6781C3.109 86.3779 1.65752 84.8083 1.21091 83.0158C3.27219 85.0227 5.62548 85.6231 8.21925 85.2114C6.05491 87.3814 2.34461 95.7868 2.47344 98.5228Z" fill="#474035"/>
<path d="M0 0V130H1.14229V1.14073H134V0H0Z" fill="#474035"/>
</svg>
