<svg width="134" height="130" viewBox="0 0 134 130" fill="none" xmlns="http://www.w3.org/2000/svg">
<path d="M69.1645 121.414C66.3732 120.402 63.5304 120.394 60.6188 120.111C60.5673 120.102 60.5587 120.188 60.6102 120.197C66.6566 121.2 71.3031 124.253 75.5201 128.55C76.9802 130.043 79.093 127.556 77.3237 126.218C74.7987 124.305 72.1705 122.495 69.1645 121.414Z" fill="#474035"/>
<path d="M60.6359 122.195C60.5844 122.187 60.5586 122.264 60.6102 122.281C62.577 122.83 64.3806 124.296 65.7977 125.712C66.459 126.372 67.0774 127.075 67.5927 127.856C68.0737 128.585 68.2455 129.074 69.1902 129.211C69.7657 129.297 70.5129 129.074 70.6245 128.396C70.6417 128.302 70.6589 128.208 70.6761 128.113C70.7619 127.616 70.719 127.015 70.2896 126.655C67.3694 124.254 64.3462 122.856 60.6359 122.195Z" fill="#474035"/>
<path d="M62.3366 124.382C61.4949 123.662 60.6275 123.087 59.6484 122.598C59.614 122.581 59.5711 122.615 59.5882 122.658C60.0263 123.413 60.4471 124.245 60.7992 125.051C61.1686 125.883 61.2802 126.621 61.3919 127.495C61.6667 129.674 64.7758 129.297 64.3979 127.092C64.2089 126.02 63.1182 125.06 62.3366 124.382Z" fill="#474035"/>
<path d="M43.6477 119.57C49.9002 115.496 57.0374 113.352 64.5009 113.163C64.5524 113.163 64.5524 113.086 64.5009 113.086C56.8141 112.366 49.2389 113.893 42.3508 117.358C40.865 118.087 42.2477 120.48 43.6477 119.57Z" fill="#474035"/>
<path d="M65.806 111.663C60.6786 110.153 55.7917 109.133 50.4066 109.433C49.8312 109.467 49.2128 109.836 49.084 110.436C48.9809 110.908 49.0067 111.071 49.2214 111.491C49.522 112.066 50.1919 112.22 50.7759 112.117C55.6457 111.294 60.8933 110.882 65.7889 111.731C65.8404 111.748 65.8662 111.671 65.806 111.663Z" fill="#474035"/>
<path d="M66.7852 110.393C64.2945 108.403 61.1854 106.388 57.896 106.233C56.5218 106.173 56.3844 108.112 57.5868 108.523C60.4898 109.51 63.7449 109.673 66.7079 110.53C66.7767 110.547 66.8539 110.445 66.7852 110.393Z" fill="#474035"/>
<path d="M105.142 119.733C111.18 119.896 117.338 121.028 122.182 124.922C122.225 124.957 122.285 124.897 122.242 124.862C117.424 120.282 111.91 116.654 105.142 115.96C102.763 115.711 102.677 119.665 105.142 119.733Z" fill="#474035"/>
<path d="M106.225 124.416C111.627 124.494 116.977 124.622 121.967 127.032C122.019 127.058 122.062 126.99 122.01 126.955C117.235 123.97 112.013 121.286 106.225 121.2C104.155 121.166 104.155 124.382 106.225 124.416Z" fill="#474035"/>
<path d="M107.418 125.531C104.584 126.483 106.903 130.626 109.222 128.619C110.596 127.435 113.241 127.564 114.959 127.556C116.978 127.547 119.022 127.701 120.98 128.199C121.031 128.216 121.057 128.139 121.006 128.113C118.592 127.178 116.222 126.286 113.662 125.823C111.661 125.471 109.394 124.871 107.418 125.531Z" fill="#474035"/>
<path d="M96.6136 93.8827C96.751 94.5088 96.897 95.1263 97.0945 95.7353C97.6871 97.5536 98.4859 99.3204 99.611 100.881C102.548 104.947 106.903 106.07 111.377 107.408C110.038 102.94 108.913 98.5914 104.841 95.6581C103.278 94.5345 101.509 93.7369 99.6883 93.1451C99.0785 92.9478 98.4601 92.802 97.8332 92.6648C97.5755 92.6047 96.562 92.3217 96.8197 92.4589C96.6136 92.356 96.416 92.296 96.2271 92.2874C96.2357 92.4761 96.2872 92.6733 96.3989 92.8792C96.27 92.6219 96.562 93.6254 96.6136 93.8827ZM102.84 97.0304C106.774 98.9516 108.586 102.683 110.39 106.422C106.645 104.621 102.909 102.811 100.985 98.883C100.573 98.0425 100.332 97.1248 100.135 96.1899C101.08 96.3871 101.999 96.6273 102.84 97.0304Z" fill="#474035"/>
<path d="M93.0749 92.1246C93.1265 93.2224 92.9289 94.2945 92.886 95.3924C92.8345 96.8247 93.0148 98.2485 93.8737 99.3463C92.1044 101.25 92.6026 104.012 94.6381 105.513C94.5436 105.444 93.6418 107.366 93.5731 107.589C93.1007 109.124 93.2381 110.779 93.762 112.28C94.0025 112.975 94.9215 113.558 95.6258 113.035C98.8465 110.625 103.751 110.41 107.581 110.865C110.922 111.26 114.272 112.212 117.441 113.464C116.178 110.299 115.234 106.954 114.839 103.626C114.383 99.8009 114.607 94.8949 117.011 91.6871C117.535 90.9838 116.943 90.0661 116.256 89.8259C114.753 89.3113 113.095 89.1741 111.558 89.6373C111.334 89.7059 109.411 90.6064 109.479 90.7008C107.976 88.6681 105.202 88.162 103.304 89.9374C102.205 89.0712 100.779 88.8911 99.3447 88.9511C98.2539 88.994 97.1717 89.1913 96.0724 89.1398C94.6724 89.0712 93.4099 88.6423 92.113 88.1878C92.5768 89.4657 93.0062 90.7351 93.0749 92.1246ZM97.0858 90.3834C99.3275 90.615 101.019 90.1604 102.918 91.6442C103.235 91.893 103.57 91.8758 103.819 91.73C103.983 91.7043 104.146 91.6185 104.283 91.4556C105.64 89.9632 107.753 89.4314 109.402 90.7608C108.483 91.4813 107.753 92.4419 107.366 93.6255C107.358 93.6512 107.392 93.6598 107.409 93.6427C108.904 91.2326 111.42 90.3663 113.868 91.3012C113.267 92.9822 113.181 95.0664 113.129 96.7475C113.061 98.9603 113.258 101.225 113.636 103.403C114.22 106.774 115.405 109.87 116.857 112.881C113.842 111.431 110.75 110.248 107.366 109.664C105.185 109.287 102.918 109.09 100.702 109.158C99.0183 109.21 96.9312 109.304 95.2479 109.896C94.3117 107.451 95.1792 104.938 97.5926 103.446C97.6097 103.437 97.6012 103.403 97.5754 103.403C96.3902 103.789 95.4282 104.518 94.7068 105.436C93.3755 103.789 93.908 101.679 95.4025 100.324C95.5571 100.178 95.6429 100.015 95.6773 99.8609C95.8319 99.6122 95.8405 99.2777 95.5914 98.9603C94.1056 97.0648 94.5608 95.3752 94.3289 93.1366C94.1915 91.7901 93.8479 90.4949 93.2553 89.3113C94.4405 89.9031 95.746 90.2462 97.0858 90.3834Z" fill="#474035"/>
<path d="M126.425 125.437C126.133 126.012 126.494 126.861 126.966 127.118C125.18 127.676 124.879 124.348 125.025 123.593C125.704 123.533 126.313 123.258 126.837 122.855C127.241 122.332 127.516 121.723 127.576 121.046C128.332 120.9 131.673 121.2 131.106 122.984C130.848 122.512 129.998 122.152 129.422 122.444C127.662 123.327 129.285 125.488 130.779 125.454C133.158 125.394 133.596 122.589 132.059 121.174C130.659 119.888 129.105 119.845 127.516 120.025C127.138 118.138 125.36 116.989 124.106 115.676C120.507 111.92 117.725 107.202 117.647 101.885C117.561 96.3013 120.344 88.4448 127.344 90.3232C129.946 91.0265 132.248 93.8397 129.972 96.3098C128.95 97.4163 126.94 97.7422 125.987 96.3527C125.429 95.5465 125.369 94.2514 126.468 93.8826C127.018 93.6939 128.306 93.7625 127.782 94.6545C127.172 95.7095 128.804 96.6615 129.414 95.6065C130.711 93.4023 128.641 91.6269 126.391 91.927C123.78 92.2701 122.921 95.2892 124.467 97.2447C127.533 101.13 133.184 97.0046 132.093 92.7762C130.857 87.9645 123.711 87.7758 120.413 90.2889C117.922 92.1929 116.926 95.881 116.505 98.8314C116.058 101.971 116.488 105.135 117.665 108.069C118.687 110.599 120.215 112.889 122.002 114.939C123.256 116.371 125.661 118.198 126.502 120.162C125.781 120.265 125.051 120.359 124.338 120.368C124.338 121.08 124.235 121.809 124.132 122.538C122.165 121.697 120.336 119.296 118.901 118.044C116.849 116.251 114.555 114.724 112.022 113.712C109.084 112.529 105.907 112.108 102.772 112.554C99.8173 112.975 96.1156 113.97 94.2175 116.457C91.7011 119.75 91.89 126.886 96.7083 128.122C100.951 129.211 105.082 123.567 101.183 120.505C99.2247 118.97 96.2015 119.819 95.858 122.426C95.5574 124.682 97.3438 126.741 99.5425 125.446C100.59 124.828 99.6456 123.198 98.5892 123.816C97.6959 124.331 97.6272 123.053 97.8162 122.495C98.1855 121.397 99.4824 121.457 100.29 122.015C101.69 122.95 101.363 124.957 100.255 125.977C97.7818 128.25 94.9648 125.952 94.2605 123.353C92.3796 116.363 100.247 113.584 105.838 113.669C111.172 113.747 115.895 116.526 119.649 120.119C120.963 121.38 122.113 123.147 124.003 123.524C123.823 125.111 123.857 126.663 125.154 128.062C126.58 129.597 129.388 129.151 129.448 126.784C129.483 125.291 127.318 123.67 126.425 125.437ZM125.515 121.526C125.944 121.423 126.365 121.303 126.794 121.2C126.846 121.655 126.777 122.118 126.58 122.589C126.107 122.787 125.643 122.855 125.18 122.804C125.291 122.375 125.411 121.955 125.515 121.526Z" fill="#474035"/>
<path d="M80.7588 114.716C79.4963 114.399 78.3368 114.167 77.1945 113.472C76.1295 112.82 75.1848 111.997 74.0511 111.457C72.548 110.745 71.2683 110.693 69.8083 111.474C69.7911 111.482 69.7997 111.517 69.8169 111.517C72.8229 111.174 74.4118 113.198 76.5504 114.87C77.7699 115.822 79.1957 116.62 80.7502 116.123C81.4115 115.9 81.4802 114.896 80.7588 114.716Z" fill="#474035"/>
<path d="M87.2347 100.324C86.1697 101.31 85.431 102.52 85.0188 103.858C84.1084 102.108 80.8361 101.276 79.2129 101.688C77.9847 102.923 77.289 104.192 77.4007 105.976C77.435 106.534 77.5381 107.091 77.6927 107.631C74.5406 106.834 70.6672 107.906 69.8255 111.388C69.8169 111.405 69.8426 111.422 69.8598 111.405C72.3849 108.909 75.3308 107.52 78.6718 109.673C79.5221 110.222 80.192 109.021 79.4619 108.318C78.3111 107.203 78.0963 103.772 79.2472 101.722C80.9048 102.022 83.679 102.966 84.6666 106.431C84.9329 107.366 86.1439 107.117 86.1267 105.779C86.2727 104.278 86.7709 102.794 87.6727 101.576C88.8493 99.9894 90.1977 99.7836 91.967 99.8436C88.1966 101.302 91.1682 107.211 88.6346 109.613C87.8015 110.402 89.1327 111.714 89.8885 110.865C92.8087 107.554 89.1585 102.863 92.4136 99.835C92.4823 99.7492 92.5596 99.612 92.4136 99.4834C90.902 98.214 88.5487 99.1146 87.2347 100.324Z" fill="#474035"/>
<path d="M89.6657 111.971C89.7773 111.628 89.4338 111.362 89.116 111.422C86.1443 112.006 83.5677 113.189 81.5494 115.488C81.3003 115.771 81.4377 116.371 81.8929 116.32C85.5946 115.908 88.1541 117.821 89.3307 121.277C89.116 122.075 88.8154 122.735 88.4461 123.259C89.0215 121.663 88.3602 119.605 86.8915 118.43C84.7615 116.731 81.1457 116.783 80.5875 119.999C80.1151 122.71 82.3481 125.874 85.2769 124.322C87.3295 123.241 87.2093 119.862 84.6241 119.665C83.6021 119.588 82.5457 120.171 82.4598 121.269C82.3825 122.272 83.2413 122.95 84.0659 122.212C84.4695 121.852 83.8683 121.252 83.4647 121.612C83.2328 121.432 83.2156 121.243 83.4045 121.046C83.4732 120.763 83.6622 120.591 83.9714 120.531C84.2806 120.411 84.6671 120.454 84.9677 120.565C86.1443 120.986 86.1271 122.487 85.3198 123.267C84.5382 124.022 83.0868 124.005 82.288 123.293C81.5923 122.658 81.3862 121.475 81.4377 120.574C81.5666 118.181 83.8426 117.684 85.6719 118.601C87.3553 119.45 88.8411 121.878 88.1626 123.619C85.8265 126.329 81.3433 124.94 78.2084 123.259C74.5496 121.294 71.2602 119.528 67.172 118.533C63.5218 117.649 59.3649 116.663 55.689 117.915C53.0523 118.816 50.9481 121.02 50.8192 123.893C50.7076 126.278 52.202 128.662 54.6498 129.099C56.8399 129.494 59.5711 128.387 60.1121 126.029C60.7048 123.396 58.3772 121.457 55.9295 121.758C53.6449 122.032 51.5922 124.099 53.1725 126.338C54.7872 128.628 58.1282 126.852 57.2779 124.271C57.0288 123.516 55.8264 123.833 56.0755 124.605C56.565 126.149 52.8633 125.591 54.3406 123.85C54.7271 123.396 55.5344 123.156 56.1012 123.053C58.8926 122.581 60.095 126.106 57.63 127.581C54.3663 129.545 51.0855 126.226 51.9787 122.855C53.0437 118.833 57.6472 118.095 61.1943 118.404C65.1966 118.756 69.594 119.802 73.2012 121.56C77.1262 123.482 82.4941 128.079 87.1062 125.591C89.3221 124.399 90.4215 121.963 90.4987 119.536C90.5417 118.215 90.3098 116.903 90.0521 115.617C89.8288 114.484 89.3135 113.112 89.6657 111.971ZM89.4681 120.694C89.0129 117.392 86.3418 115.368 83.0953 115.299C84.6671 113.824 86.548 112.932 88.678 112.426C88.6092 113.241 88.824 114.09 88.9786 114.879C89.3651 116.774 89.8288 118.756 89.4681 120.694Z" fill="#474035"/>
<path d="M34.0369 126.286C41.3974 124.322 47.1174 118.824 54.3061 116.474C62.2249 113.893 71.7153 115.136 78.6807 119.751C78.7065 119.768 78.7236 119.725 78.7065 119.716C74.4723 116.766 70.0405 114.93 64.8616 114.501C59.6826 114.073 54.6153 115.119 49.9431 117.349C44.3089 120.051 39.2502 124.133 33.0492 125.523C30.1377 126.175 24.8986 126.698 23.4471 123.284C22.5539 121.174 23.6533 118.292 25.9121 117.692C28.7292 116.946 29.6224 119.605 29.3819 120.342C28.9954 122.607 25.809 121.972 27.1403 119.956C27.6813 119.476 26.8826 118.678 26.3415 119.159C25.1219 120.248 25.2765 122.341 26.9685 122.873C28.7807 123.439 30.3696 121.8 30.5156 120.076C30.6874 118.087 29.0126 116.611 27.1231 116.457C24.8557 116.268 22.949 118.035 22.3478 120.119C20.2693 127.255 29.5966 127.47 34.0369 126.286Z" fill="#474035"/>
<path d="M50.2608 120.197C50.5099 119.545 49.5136 119.21 49.1958 119.759C48.4142 121.089 38.7778 127.144 34.7325 127.187C34.5779 127.187 34.5608 127.375 34.6982 127.461C36.1239 128.37 39.1471 128.911 41.174 128.696C42.5826 128.542 45.4426 127.787 46.5076 126.295C47.4008 127.899 49.0155 128.928 50.9393 128.911C50.9822 128.911 50.9994 128.868 50.9908 128.833C51.008 128.825 51.0166 128.799 50.9994 128.782C49.2216 126.097 49.1271 123.173 50.2608 120.197ZM50.8706 128.782C49.067 128.336 47.5039 126.895 47.2032 125.051C47.0916 124.348 46.499 124.494 46.4474 124.622C44.8585 128.61 36.9398 128.164 35.3423 127.521C38.0821 127.65 46.499 123.945 48.6719 121.775C48.2597 124.373 48.8609 126.724 50.8706 128.782Z" fill="#474035"/>
<path d="M124.183 56.7104C124.174 56.659 124.097 56.6761 124.097 56.719C124.381 59.6266 124.389 62.4655 125.403 65.253C126.493 68.2549 128.297 70.8794 130.212 73.4011C131.552 75.1679 134.043 73.058 132.548 71.5999C128.245 67.3887 125.188 62.7485 124.183 56.7104Z" fill="#474035"/>
<path d="M131.844 63.6834C131.063 63.1688 130.358 62.5513 129.697 61.8909C128.289 60.4757 126.811 58.6745 126.262 56.7104C126.244 56.659 126.167 56.6761 126.176 56.7361C126.837 60.4499 128.237 63.469 130.642 66.3766C130.994 66.8054 131.595 66.8483 132.102 66.7625C132.196 66.7454 132.291 66.7282 132.385 66.7111C133.064 66.591 133.287 65.8534 133.201 65.2787C133.064 64.3353 132.574 64.1637 131.844 63.6834Z" fill="#474035"/>
<path d="M129.044 56.8992C128.237 56.5475 127.404 56.1273 126.648 55.6898C126.605 55.6641 126.571 55.7156 126.588 55.7499C127.069 56.7276 127.653 57.5939 128.375 58.4344C129.044 59.2235 130.015 60.3042 131.089 60.4929C133.296 60.8703 133.682 57.7654 131.492 57.491C130.616 57.3795 129.878 57.268 129.044 56.8992Z" fill="#474035"/>
<path d="M121.332 38.4673C117.87 45.346 116.333 52.9108 117.054 60.5871C117.063 60.6386 117.132 60.6386 117.132 60.5871C117.321 53.1424 119.476 46.0064 123.547 39.7624C124.466 38.373 122.07 36.9921 121.332 38.4673Z" fill="#474035"/>
<path d="M115.465 45.3375C115.045 45.1231 114.881 45.0973 114.409 45.2002C113.799 45.3289 113.43 45.9464 113.404 46.5211C113.095 51.8988 114.126 56.7791 115.637 61.8995C115.654 61.9509 115.732 61.9338 115.723 61.8737C114.864 56.9849 115.277 51.7444 116.11 46.8813C116.196 46.3067 116.05 45.6377 115.465 45.3375Z" fill="#474035"/>
<path d="M114.367 62.8773C114.418 62.9459 114.521 62.8687 114.504 62.8001C113.645 59.8411 113.49 56.5905 112.494 53.6915C112.082 52.4993 110.141 52.6279 110.201 54.0002C110.347 57.2852 112.374 60.39 114.367 62.8773Z" fill="#474035"/>
<path d="M119.932 101.182C120.627 107.94 124.26 113.447 128.847 118.258C128.89 118.301 128.941 118.241 128.907 118.198C125.016 113.361 123.882 107.211 123.711 101.182C123.65 98.72 119.691 98.8058 119.932 101.182Z" fill="#474035"/>
<path d="M131.029 117.984C128.615 113.001 128.486 107.657 128.409 102.262C128.375 100.187 125.154 100.195 125.188 102.262C125.274 108.043 127.962 113.258 130.951 118.027C130.986 118.078 131.054 118.035 131.029 117.984Z" fill="#474035"/>
<path d="M129.525 103.455C128.864 105.427 129.465 107.692 129.826 109.681C130.281 112.237 131.183 114.605 132.119 117.015C132.136 117.066 132.214 117.049 132.205 116.989C131.716 115.033 131.552 112.992 131.561 110.977C131.57 109.261 131.441 106.619 132.626 105.247C134.636 102.931 130.479 100.624 129.525 103.455Z" fill="#474035"/>
<path d="M129.792 125.797C129.396 126.372 129.585 127.29 129.972 127.813C130.599 128.671 131.758 129.202 132.806 129.168C132.909 129.168 133.012 129.142 133.098 129.099C133.141 129.014 133.167 128.911 133.167 128.808C133.201 127.762 132.669 126.604 131.818 125.978C131.295 125.592 130.367 125.403 129.792 125.797Z" fill="#474035"/>
<path d="M117.449 73.2724C118.145 74.4045 118.377 75.5624 118.695 76.8318C118.875 77.5522 119.88 77.4922 120.095 76.8318C120.593 75.2794 119.803 73.8556 118.841 72.6377C117.166 70.502 115.148 68.9153 115.483 65.9134C115.483 65.8877 115.448 65.8877 115.44 65.9048C114.658 67.3629 114.71 68.6408 115.423 70.1418C115.972 71.2654 116.797 72.2088 117.449 73.2724Z" fill="#474035"/>
<path d="M103.45 88.4706C103.579 88.6164 103.716 88.5392 103.802 88.4706C106.825 85.2285 111.523 88.8737 114.847 85.949C115.697 85.1942 114.383 83.8648 113.593 84.6968C111.188 87.2269 105.271 84.2593 103.811 88.0246C103.751 86.2578 103.957 84.9112 105.546 83.7362C106.765 82.8356 108.251 82.3381 109.745 82.1923C111.085 82.2095 111.334 81.0001 110.398 80.7342C106.92 79.7479 105.984 76.969 105.683 75.3222C107.736 74.1729 111.171 74.3873 112.288 75.5366C112.992 76.2657 114.194 75.5967 113.645 74.7476C111.489 71.4112 112.88 68.4693 115.38 65.9477C115.397 65.9305 115.38 65.9048 115.362 65.9134C111.867 66.7625 110.793 70.6307 111.601 73.7698C111.06 73.6068 110.501 73.5125 109.943 73.4782C108.165 73.3667 106.885 74.0528 105.649 75.2879C105.236 76.9089 106.07 80.1767 107.822 81.0859C106.482 81.4976 105.271 82.2352 104.283 83.2987C103.072 84.611 102.17 86.9611 103.45 88.4706Z" fill="#474035"/>
<path d="M133.115 50.7666C132.677 48.3222 130.29 46.8298 127.902 46.9413C125.025 47.07 122.818 49.1713 121.916 51.8044C120.662 55.4754 121.65 59.6351 122.534 63.2717C123.531 67.3629 125.3 70.6479 127.267 74.2931C128.95 77.4236 130.341 81.9093 127.627 84.2337C125.884 84.9113 123.453 83.4275 122.603 81.7464C121.684 79.9195 122.182 77.6552 124.578 77.5265C125.472 77.4751 126.665 77.6809 127.301 78.3757C128.022 79.1647 128.031 80.6228 127.275 81.4033C126.494 82.2095 124.991 82.2181 124.57 81.0517C124.458 80.7515 124.415 80.3655 124.535 80.0567C124.596 79.748 124.767 79.5593 125.051 79.4907C125.257 79.302 125.446 79.3191 125.618 79.5507C125.257 79.9538 125.858 80.5542 126.219 80.1511C126.949 79.3277 126.279 78.47 125.274 78.5472C124.175 78.633 123.591 79.6879 123.668 80.7086C123.866 83.2902 127.241 83.4017 128.332 81.3604C129.886 78.4357 126.717 76.2057 124.003 76.6774C120.782 77.2349 120.731 80.8544 122.431 82.9729C123.608 84.4395 125.661 85.1085 127.267 84.5253C126.743 84.8941 126.081 85.1943 125.283 85.4087C121.821 84.2337 119.906 81.6778 120.318 77.9811C120.37 77.5265 119.769 77.3893 119.485 77.638C117.175 79.645 115.99 82.2267 115.414 85.1943C115.354 85.5116 115.612 85.8461 115.964 85.7432C117.106 85.383 118.48 85.8976 119.614 86.1292C120.902 86.3865 122.216 86.6181 123.539 86.5752C125.97 86.498 128.409 85.4001 129.603 83.1873C132.093 78.5901 127.49 73.2295 125.583 69.3185C123.823 65.7162 122.775 61.3162 122.423 57.328C122.113 53.7857 122.852 49.1885 126.88 48.125C130.255 47.233 133.588 50.5093 131.612 53.7686C130.127 56.2301 126.605 55.0293 127.078 52.2419C127.172 51.6672 127.421 50.8696 127.876 50.4836C129.62 48.9998 130.178 52.705 128.632 52.2161C127.859 51.976 127.541 53.1682 128.297 53.4169C130.882 54.2746 132.652 50.9382 130.367 49.3171C128.134 47.739 126.064 49.7803 125.781 52.0703C125.48 54.5147 127.43 56.8391 130.058 56.2473C132.403 55.6812 133.502 52.9537 133.115 50.7666ZM118.858 85.0485C118.068 84.8941 117.226 84.6797 116.402 84.7483C116.9 82.6212 117.793 80.7429 119.279 79.1733C119.348 82.4068 121.375 85.0828 124.681 85.5374C122.74 85.889 120.756 85.4259 118.858 85.0485Z" fill="#474035"/>
<path d="M130.281 30.1736C131.467 25.7394 131.26 16.4334 124.115 18.5005C122.028 19.1094 120.258 21.0049 120.447 23.2692C120.602 25.1562 122.079 26.8287 124.072 26.6571C125.79 26.5113 127.439 24.9246 126.872 23.1149C126.339 21.4338 124.244 21.2708 123.153 22.4887C122.672 23.0291 123.471 23.8267 123.952 23.2864C125.97 21.957 126.597 25.139 124.338 25.525C123.599 25.7565 120.937 24.8731 121.684 22.0599C122.285 19.7956 125.171 18.6977 127.284 19.5983C130.702 21.0478 130.178 26.2797 129.526 29.1873C128.134 35.3798 124.037 40.4316 121.341 46.058C119.099 50.7239 118.06 55.7842 118.489 60.9561C118.919 66.128 120.757 70.5537 123.711 74.7821C123.728 74.8078 123.763 74.7821 123.745 74.7563C119.125 67.8005 117.871 58.323 120.465 50.4151C122.809 43.2362 128.315 37.524 130.281 30.1736Z" fill="#474035"/>
<path d="M124.183 46.3752C127.164 45.243 130.092 45.3459 132.789 47.1128C132.806 47.1299 132.832 47.1128 132.841 47.1042C132.875 47.1128 132.918 47.087 132.918 47.0527C132.927 45.1315 131.896 43.5191 130.298 42.6271C131.784 41.5635 132.549 38.716 132.703 37.3008C132.918 35.2767 132.377 32.249 131.466 30.8338C131.381 30.6966 131.192 30.7138 131.192 30.8681C131.149 34.9079 125.076 44.5311 123.754 45.3116C123.196 45.6204 123.539 46.6153 124.183 46.3752ZM131.527 31.4771C132.171 33.0724 132.617 40.9803 128.624 42.567C128.495 42.6185 128.349 43.2103 129.053 43.3218C130.891 43.622 132.342 45.1916 132.789 46.9841C130.728 44.9771 128.375 44.3767 125.781 44.7884C127.945 42.6185 131.655 34.2131 131.527 31.4771Z" fill="#474035"/>
<path d="M134 130L134 0L132.858 -9.98621e-08L132.858 128.859L9.97255e-08 128.859L0 130L134 130Z" fill="#474035"/>
</svg>
