<svg width="27" height="26" viewBox="0 0 27 26" fill="none" xmlns="http://www.w3.org/2000/svg">
<g clip-path="url(#clip0_217_3917)">
<path d="M27 12.75C27 5.70822 20.956 0 13.5 0C6.044 0 0 5.70822 0 12.75C0 19.1137 4.936 24.3893 11.39 25.3451V16.4352H7.962V12.75H11.39V9.94122C11.39 6.74522 13.406 4.981 16.49 4.981C17.968 4.981 19.512 5.23033 19.512 5.23033V8.36778H17.81C16.132 8.36778 15.61 9.35 15.61 10.3587V12.75H19.354L18.756 16.4352H15.61V25.3451C22.064 24.3893 27 19.1137 27 12.75Z" fill="#D7BA31"/>
<path d="M18.754 16.4352L19.352 12.75H15.61V10.3586C15.61 9.34996 16.132 8.36773 17.81 8.36773H19.512V5.23029C19.512 5.23029 17.968 4.98096 16.49 4.98096C13.406 4.98096 11.39 6.74518 11.39 9.94118V12.75H7.96198V16.4352H11.39V25.3451C12.078 25.4471 12.782 25.5 13.5 25.5C14.218 25.5 14.922 25.4471 15.61 25.3451V16.4352H18.754Z" fill="#08080B"/>
</g>
<defs>
<clipPath id="clip0_217_3917">
<rect width="27" height="25.5" fill="white"/>
</clipPath>
</defs>
</svg>
