<?xml version="1.0" encoding="utf-8"?>
<!-- Generator: Adobe Illustrator 27.5.0, SVG Export Plug-In . SVG Version: 6.00 Build 0)  -->
<svg version="1.1" id="Calque_1" xmlns="http://www.w3.org/2000/svg" xmlns:xlink="http://www.w3.org/1999/xlink" x="0px" y="0px"
	 viewBox="0 0 32 32" style="enable-background:new 0 0 32 32;" xml:space="preserve">
<style type="text/css">
	.st0{fill:#08080B;}
	.st1{fill:#FFFFFF;}
	.st2{fill:#D7BA31;stroke:#D7BA31;stroke-width:0.5;stroke-linecap:square;stroke-linejoin:round;stroke-miterlimit:5;}
</style>
<path class="st0" d="M27.2,32H4.8C2.15,32,0,29.85,0,27.2V4.8C0,2.15,2.15,0,4.8,0H27.2C29.85,0,32,2.15,32,4.8V27.2
	C32,29.85,29.85,32,27.2,32z"/>
<path class="st1" d="M12.58,26.18c0-1.43-0.11-8.72-0.12-9.53h0.01c0,0,0-8.18,0-9.63s1.3-1.8,1.3-1.8V4.82H8.32v0.4
	c0,0,1.24,0.3,1.24,1.81c0,1.43,0.11,8.72,0.12,9.53H9.67c0,0,0,8.18,0,9.63S8.37,28,8.37,28v0.39h5.44v-0.4
	C13.82,27.99,12.58,27.69,12.58,26.18z"/>
<path class="st2" d="M30.29,2.68c-0.67-0.28-1.65-0.4-2.73,0.2c-1.46,0.82-2.84,3.78-3.45,5.75c0,0-1.21,4.05-1.45,5.11
	c-0.24,1.06-2.48,9.98-2.93,11.04c-0.45,1.06-1.54,4.23-3.51,4.39c-2.33,0.18-4.33-4.9-3.96-11.55c0.31-5.61,1.43-8.86,2.29-11.02
	c1.21,0.24,2.32,0.3,3.19-0.14c1.72-0.88,1.88-2.69,1.09-3.42c-0.79-0.73-2.95-0.88-4.85,3.29c0,0-0.56-0.12-2.08-0.51
	C10.05,5.34,8.68,5.3,8.68,5.3c-5.62-0.03-6.92,3.95-6.66,6.2l0.11,0c0,0-0.25-2.29,1.44-4.04c1.69-1.75,3.85-2.09,5.86-1.93
	c1.41,0.11,2.99,0.59,4.47,0.93c-0.32,0.71-2.1,4.92-2.42,11.22c-0.29,5.8,1.13,11.8,4.63,11.8c2.83,0,4.35-5.45,4.91-7.65
	c0.62-2.41,2.76-11.71,3.57-13.8c0.82-2.09,2.7-6.43,5.67-5.26c0,0,0.11,0.05,0.12,0.02C30.4,2.76,30.41,2.73,30.29,2.68z
	 M17.79,2.88c0,0,1.18-0.09,1.3,1.2c0.12,1.29-1.34,3.02-4.48,2.32C14.62,6.4,15.92,2.88,17.79,2.88z"/>
</svg>
