<svg width="27" height="26" viewBox="0 0 27 26" fill="none" xmlns="http://www.w3.org/2000/svg">
<g clip-path="url(#clip0_217_3925)">
<path d="M13.5 25.5C20.9558 25.5 27 19.7916 27 12.75C27 5.70837 20.9558 0 13.5 0C6.04416 0 0 5.70837 0 12.75C0 19.7916 6.04416 25.5 13.5 25.5Z" fill="#D7BA31"/>
<path d="M13.5 6.16906C15.77 6.16906 16.038 6.17661 16.934 6.21628C17.762 6.25217 18.212 6.3825 18.512 6.49206C18.908 6.6375 19.192 6.81128 19.49 7.09272C19.788 7.37417 19.972 7.6405 20.126 8.01639C20.242 8.29972 20.38 8.72472 20.418 9.50672C20.458 10.3529 20.468 10.6079 20.468 12.7499C20.468 14.8919 20.46 15.1469 20.418 15.9932C20.38 16.7752 20.242 17.2002 20.126 17.4835C19.972 17.8575 19.788 18.1257 19.49 18.4072C19.192 18.6886 18.91 18.8624 18.512 19.0078C18.212 19.1174 17.762 19.2477 16.934 19.2836C16.038 19.3214 15.77 19.3308 13.5 19.3308C11.23 19.3308 10.962 19.3233 10.066 19.2836C9.238 19.2477 8.788 19.1174 8.488 19.0078C8.092 18.8624 7.808 18.6886 7.51 18.4072C7.212 18.1257 7.028 17.8594 6.874 17.4835C6.758 17.2002 6.62 16.7752 6.582 15.9932C6.542 15.1469 6.532 14.8919 6.532 12.7499C6.532 10.6079 6.54 10.3529 6.582 9.50672C6.62 8.72472 6.758 8.29972 6.874 8.01639C7.028 7.64239 7.212 7.37417 7.51 7.09272C7.808 6.81128 8.09 6.6375 8.488 6.49206C8.788 6.3825 9.238 6.25217 10.066 6.21628C10.962 6.17661 11.23 6.16906 13.5 6.16906ZM13.5 4.72217C11.192 4.72217 10.902 4.73161 9.996 4.77128C9.092 4.81095 8.474 4.94506 7.932 5.14528C7.374 5.35117 6.9 5.62506 6.426 6.07083C5.954 6.51661 5.662 6.96428 5.446 7.49317C5.236 8.00317 5.092 8.58683 5.05 9.4425C5.01 10.2963 5 10.5702 5 12.7499C5 14.9297 5.01 15.2036 5.052 16.0593C5.094 16.9131 5.236 17.4967 5.448 18.0086C5.666 18.5356 5.956 18.9833 6.428 19.4309C6.9 19.8767 7.374 20.1525 7.934 20.3565C8.474 20.5548 9.092 20.6908 9.998 20.7305C10.904 20.7702 11.194 20.7796 13.502 20.7796C15.81 20.7796 16.1 20.7702 17.006 20.7305C17.91 20.6908 18.528 20.5567 19.07 20.3565C19.628 20.1506 20.102 19.8767 20.576 19.4309C21.048 18.9852 21.34 18.5375 21.556 18.0086C21.766 17.4986 21.91 16.9149 21.952 16.0593C21.994 15.2036 22.004 14.9297 22.004 12.7499C22.004 10.5702 21.994 10.2963 21.952 9.44061C21.91 8.58683 21.768 8.00317 21.556 7.49128C21.338 6.96428 21.048 6.51661 20.576 6.06895C20.104 5.62317 19.63 5.34739 19.07 5.14339C18.53 4.94506 17.912 4.80906 17.006 4.76939C16.098 4.73161 15.808 4.72217 13.5 4.72217Z" fill="#08080B"/>
<path d="M13.5 8.62842C11.09 8.62842 9.13599 10.4739 9.13599 12.75C9.13599 15.0261 11.09 16.8715 13.5 16.8715C15.91 16.8715 17.864 15.0261 17.864 12.75C17.864 10.4739 15.91 8.62842 13.5 8.62842ZM13.5 15.4265C11.936 15.4265 10.666 14.229 10.666 12.75C10.666 11.271 11.934 10.0734 13.5 10.0734C15.066 10.0734 16.334 11.271 16.334 12.75C16.334 14.229 15.064 15.4265 13.5 15.4265Z" fill="#08080B"/>
<path d="M18.038 9.4274C18.6013 9.4274 19.058 8.9961 19.058 8.46407C19.058 7.93203 18.6013 7.50073 18.038 7.50073C17.4747 7.50073 17.018 7.93203 17.018 8.46407C17.018 8.9961 17.4747 9.4274 18.038 9.4274Z" fill="#08080B"/>
</g>
<defs>
<clipPath id="clip0_217_3925">
<rect width="27" height="25.5" fill="white"/>
</clipPath>
</defs>
</svg>
