<?xml version="1.0" encoding="utf-8"?>
<!-- Generator: Adobe Illustrator 27.5.0, SVG Export Plug-In . SVG Version: 6.00 Build 0)  -->
<svg version="1.1" id="vectorisation" xmlns="http://www.w3.org/2000/svg" xmlns:xlink="http://www.w3.org/1999/xlink" x="0px"
	 y="0px" viewBox="0 0 530.21 504.47" style="enable-background:new 0 0 530.21 504.47;" xml:space="preserve">
<style type="text/css">
	.st0{fill:#FFFFFF;}
	.st1{fill:#D7BA31;}
</style>
<path class="st0" d="M197.5,443.04c0-26.66-2.01-162.88-2.24-178h0.11c0,0,0-152.78,0-179.88s24.28-33.58,24.28-33.58v-7.34H118.01
	v7.53c0,0,23.15,5.65,23.15,33.88c0,26.66,2.01,162.88,2.24,178h-0.11c0,0,0,152.78,0,179.88s-24.28,33.58-24.28,33.58v7.34h101.65
	v-7.53C220.65,476.92,197.5,471.27,197.5,443.04z"/>
<path class="st1" d="M528.25,4.33c-12.49-5.24-30.87-7.53-50.92,3.74c-27.32,15.35-53.08,70.61-64.38,107.32
	c0,0-22.59,75.67-27.11,95.44c-4.52,19.76-46.31,186.35-54.78,206.12c-8.47,19.76-28.8,79.06-65.51,81.88
	c-43.45,3.34-80.75-91.48-73.98-215.72c5.71-104.73,26.79-165.38,42.69-205.8c22.52,4.42,43.32,5.66,59.52-2.58
	c32.19-16.38,35.01-50.26,20.33-63.81C299.45-2.63,259.1-5.58,223.65,72.35c0,0-10.46-2.19-38.84-9.47
	c-34.38-8.82-59.97-9.68-59.97-9.68C19.91,52.58-4.3,126.96,0.59,168.94c0,0,0.11,2.06,1.6,1.75c0.61-0.13,0.42-1.84,0.42-1.84
	s-4.72-42.73,26.91-75.48c31.62-32.75,71.93-38.97,109.35-36.05c26.23,2.04,55.78,11,83.52,17.43c-6,13.3-39.29,91.91-45.2,209.49
	c-5.44,108.29,21.15,220.23,86.4,220.23c52.8,0,81.2-101.69,91.69-142.74c11.51-45.05,51.46-218.67,66.71-257.64
	c15.25-38.96,50.45-119.97,105.79-98.26c0,0,1.98,0.85,2.28,0.38C530.36,5.77,530.44,5.25,528.25,4.33z M294.93,8.1
	c0,0,22.02-1.69,24.28,22.4s-24.93,56.41-83.58,43.39C235.64,73.89,259.95,8.1,294.93,8.1z"/>
<text transform="matrix(1 0 0 1 -8.6832 613.7008)" style="display:none;fill:#D7BA31; font-family:'FONTSPRINGDEMO-TheSeasonsBold'; font-size:79.9295px;">I N O   V I N</text>
</svg>
