<svg width="134" height="130" viewBox="0 0 134 130" fill="none" xmlns="http://www.w3.org/2000/svg">
<path d="M64.8356 8.58553C67.6269 9.59761 70.4698 9.60618 73.3813 9.88922C73.4329 9.8978 73.4414 9.81203 73.3899 9.80345C67.3435 8.79995 62.697 5.74658 58.48 1.44956C57.02 -0.0428234 54.9071 2.44448 56.6764 3.78247C59.2015 5.69512 61.8296 7.50484 64.8356 8.58553Z" fill="#474035"/>
<path d="M73.3642 7.805C73.4157 7.81358 73.4415 7.73639 73.3899 7.71923C71.4231 7.17031 69.6195 5.70366 68.2024 4.28848C67.5411 3.62805 66.9227 2.92475 66.4074 2.14425C65.9264 1.41522 65.7546 0.926333 64.8099 0.789102C64.2345 0.703333 63.4872 0.926333 63.3756 1.60391C63.3584 1.69825 63.3412 1.7926 63.3241 1.88694C63.2382 2.3844 63.2811 2.98479 63.7106 3.34502C66.6307 5.74655 69.6539 7.14458 73.3642 7.805Z" fill="#474035"/>
<path d="M71.6636 5.61781C72.5053 6.33827 73.3728 6.91292 74.3519 7.4018C74.3862 7.41896 74.4292 7.38465 74.412 7.34176C73.974 6.587 73.5531 5.75504 73.201 4.94881C72.8317 4.11685 72.72 3.37924 72.6084 2.5044C72.3335 0.325865 69.2245 0.703248 69.6024 2.90751C69.7913 3.97962 70.8821 4.94023 71.6636 5.61781Z" fill="#474035"/>
<path d="M90.3526 10.4295C84.1 14.5035 76.9629 16.6477 69.4993 16.8364C69.4478 16.8364 69.4478 16.9136 69.4993 16.9136C77.1862 17.634 84.7614 16.1074 91.6495 12.6423C93.1353 11.9133 91.7525 9.5203 90.3526 10.4295Z" fill="#474035"/>
<path d="M68.1938 18.3374C73.3213 19.8469 78.2082 20.8676 83.5933 20.5674C84.1687 20.5331 84.7871 20.1643 84.9159 19.5639C85.019 19.0922 84.9932 18.9292 84.7785 18.5089C84.4779 17.9343 83.808 17.7799 83.224 17.8828C78.3542 18.7062 73.1065 19.1179 68.211 18.2688C68.1595 18.2516 68.1337 18.3288 68.1938 18.3374Z" fill="#474035"/>
<path d="M67.2148 19.6068C69.7055 21.5966 72.8146 23.6122 76.104 23.7666C77.4782 23.8266 77.6156 21.8882 76.4132 21.4766C73.5102 20.4902 70.2551 20.3272 67.2921 19.4696C67.2233 19.4524 67.1461 19.5553 67.2148 19.6068Z" fill="#474035"/>
<path d="M28.8578 10.2665C22.82 10.1036 16.6619 8.97141 11.8179 5.0775C11.775 5.0432 11.7149 5.10324 11.7578 5.13754C16.576 9.7176 22.09 13.3456 28.8578 14.0404C31.2369 14.2891 31.3227 10.3351 28.8578 10.2665Z" fill="#474035"/>
<path d="M27.7756 5.58351C22.3734 5.50632 17.0226 5.37767 12.0326 2.96756C11.9811 2.94183 11.9382 3.01044 11.9897 3.04475C16.765 6.02951 21.9869 8.71408 27.7756 8.79985C29.8455 8.83416 29.8455 5.61782 27.7756 5.58351Z" fill="#474035"/>
<path d="M26.5819 4.4686C29.4161 3.51657 27.0972 -0.626071 24.7783 1.38092C23.4041 2.56453 20.7588 2.43588 19.041 2.44446C17.0227 2.45303 14.9786 2.29865 13.0204 1.80119C12.9689 1.78404 12.9431 1.86123 12.9946 1.88696C15.4081 2.82184 17.7785 3.71384 20.3379 4.17699C22.3391 4.52864 24.6065 5.12902 26.5819 4.4686Z" fill="#474035"/>
<path d="M37.3863 36.1173C37.2489 35.4912 37.1029 34.8737 36.9053 34.2647C36.3127 32.4464 35.514 30.6796 34.3889 29.1186C31.4516 25.0531 27.0971 23.9295 22.6224 22.5916C23.9623 27.0601 25.0874 31.4086 29.1584 34.3419C30.7215 35.4655 32.4908 36.2631 34.3116 36.8549C34.9214 37.0522 35.5398 37.198 36.1667 37.3352C36.4244 37.3953 37.4378 37.6783 37.1802 37.5411C37.3863 37.644 37.5838 37.704 37.7728 37.7126C37.7642 37.5239 37.7127 37.3267 37.601 37.1208C37.7299 37.3781 37.4378 36.3746 37.3863 36.1173ZM31.1595 32.9696C27.2259 31.0484 25.4137 27.3174 23.6101 23.5779C27.3548 25.379 31.0908 27.1888 33.0147 31.117C33.4269 31.9575 33.6674 32.8752 33.865 33.8101C32.9202 33.6129 32.0012 33.3727 31.1595 32.9696Z" fill="#474035"/>
<path d="M40.9249 37.8756C40.8734 36.7777 41.0709 35.7056 41.1139 34.6078C41.1654 33.1754 40.9851 31.7517 40.1262 30.6538C41.8955 28.7498 41.3973 25.988 39.3618 24.487C39.4563 24.5556 40.3581 22.6344 40.4268 22.4114C40.8992 20.8762 40.7618 19.2208 40.2378 17.7199C39.9974 17.0251 39.0784 16.4419 38.3741 16.9651C35.1534 19.3752 30.2493 19.5896 26.4187 19.1351C23.0777 18.7405 19.7282 17.7885 16.559 16.5363C17.8215 19.7011 18.7662 23.0461 19.1613 26.374C19.6165 30.1992 19.3932 35.1052 16.9884 38.313C16.4645 39.0163 17.0571 39.934 17.7442 40.1742C19.2472 40.6888 20.9048 40.826 22.4422 40.3629C22.6655 40.2943 24.5893 39.3937 24.5206 39.2993C26.0236 41.3321 28.7978 41.8381 30.6959 40.0627C31.7952 40.9289 33.2209 41.1091 34.6552 41.049C35.746 41.0061 36.8282 40.8089 37.9275 40.8603C39.3275 40.9289 40.59 41.3578 41.8869 41.8124C41.4231 40.5344 40.9936 39.265 40.9249 37.8756ZM36.914 39.6167C34.6724 39.3851 32.9804 39.8397 31.0824 38.3559C30.7646 38.1071 30.4296 38.1243 30.1805 38.2701C30.0174 38.2958 29.8542 38.3816 29.7168 38.5446C28.3598 40.0369 26.2469 40.5687 24.5979 39.2393C25.5169 38.5188 26.2469 37.5582 26.6334 36.3746C26.642 36.3489 26.6077 36.3403 26.5905 36.3575C25.0961 38.7676 22.5796 39.6338 20.1318 38.6989C20.733 37.0179 20.8189 34.9337 20.8705 33.2526C20.9392 31.0398 20.7416 28.7755 20.3637 26.597C19.7797 23.2262 18.5945 20.13 17.143 17.1195C20.1576 18.569 23.2495 19.7526 26.6334 20.3358C28.815 20.7132 31.0824 20.9105 33.2982 20.8419C34.9816 20.7904 37.0686 20.696 38.752 20.1042C39.6882 22.5487 38.8207 25.0617 36.4073 26.5541C36.3901 26.5626 36.3987 26.597 36.4245 26.597C37.6097 26.211 38.5717 25.482 39.2931 24.5642C40.6243 26.211 40.0918 28.3209 38.5974 29.6761C38.4428 29.8219 38.3569 29.9848 38.3226 30.1392C38.168 30.3879 38.1594 30.7224 38.4085 31.0398C39.8943 32.9353 39.4391 34.6249 39.671 36.8635C39.8084 38.2101 40.152 39.5052 40.7446 40.6888C39.5593 40.097 38.2539 39.7539 36.914 39.6167Z" fill="#474035"/>
<path d="M7.57516 4.5629C7.86718 3.98825 7.50645 3.13914 7.03408 2.88183C8.82052 2.32433 9.12112 5.65217 8.97511 6.40694C8.29661 6.46697 7.68682 6.74143 7.16291 7.14455C6.75924 7.66774 6.48441 8.2767 6.42429 8.95427C5.66849 9.10008 2.3275 8.79989 2.89435 7.0159C3.15201 7.48762 4.00229 7.84785 4.57773 7.55624C6.3384 6.67282 4.71515 4.51144 3.22072 4.54575C0.841669 4.60579 0.403648 7.41043 1.94101 8.82562C3.34096 10.1122 4.89551 10.155 6.48441 9.97492C6.86231 11.8618 8.64016 13.0111 9.8941 14.3234C13.4927 18.0801 16.2755 22.7974 16.3528 28.1151C16.4386 33.6986 13.6559 41.555 6.65618 39.6767C4.05382 38.9734 1.75206 36.1602 4.02805 33.69C5.0501 32.5836 7.05984 32.2577 8.01318 33.6472C8.57145 34.4534 8.63157 35.7485 7.53222 36.1173C6.98255 36.306 5.69425 36.2374 6.21816 35.3454C6.82795 34.2904 5.19611 33.3384 4.58632 34.3933C3.28943 36.5976 5.35929 38.373 7.60952 38.0728C10.2205 37.7298 11.0793 34.7107 9.53337 32.7552C6.46723 28.8698 0.815903 32.9953 1.90666 37.2237C3.14342 42.0354 10.2892 42.224 13.5872 39.711C16.0779 37.8069 17.0742 34.1189 17.495 31.1684C17.9417 28.0293 17.5122 24.8644 16.3356 21.9311C15.3135 19.4009 13.7848 17.1109 11.9983 15.061C10.7444 13.6287 8.33955 11.8018 7.49787 9.83769C8.21931 9.73477 8.94935 9.64042 9.6622 9.63185C9.6622 8.91997 9.76527 8.19093 9.86833 7.46189C11.8351 8.30243 13.6645 10.704 15.0988 11.9562C17.1515 13.7488 19.4447 15.2754 21.9783 16.2875C24.9156 17.4711 28.0934 17.8914 31.2283 17.4454C34.1828 17.0251 37.8845 16.0302 39.7826 13.5429C42.299 10.2494 42.1101 3.11341 37.2919 1.87833C33.0491 0.789069 28.9179 6.43267 32.8172 9.49462C34.7754 11.0299 37.7986 10.1808 38.1421 7.57339C38.4427 5.31767 36.6563 3.25922 34.4576 4.55433C33.4098 5.17186 34.3545 6.80147 35.411 6.18394C36.3042 5.66932 36.3729 6.94728 36.1839 7.50478C35.8146 8.60262 34.5177 8.54258 33.7104 7.98509C32.3105 7.0502 32.6368 5.04321 33.7448 4.02256C36.2183 1.74968 39.0354 4.04829 39.7396 6.64709C41.6205 13.6373 33.7533 16.4162 28.1621 16.3304C22.8286 16.2532 18.1048 13.4743 14.3516 9.88058C13.0375 8.61977 11.8867 6.85293 9.99716 6.47555C10.1775 4.88883 10.1432 3.33641 8.84628 1.93837C7.42057 0.403109 4.61208 0.849108 4.55196 3.21633C4.51761 4.70871 6.68195 6.32974 7.57516 4.5629ZM8.48556 8.47397C8.05613 8.57689 7.63528 8.69697 7.20585 8.79989C7.15432 8.34531 7.22303 7.88216 7.42057 7.41043C7.89294 7.21316 8.35673 7.14455 8.82052 7.19601C8.70886 7.62486 8.58862 8.04512 8.48556 8.47397Z" fill="#474035"/>
<path d="M53.241 15.284C54.5035 15.6013 55.663 15.8329 56.8053 16.5276C57.8702 17.1795 58.815 18.0028 59.9487 18.5432C61.4517 19.2551 62.7314 19.3065 64.1915 18.526C64.2087 18.5175 64.2001 18.4832 64.1829 18.4832C61.1769 18.8262 59.588 16.8021 57.4494 15.1296C56.2298 14.1776 54.8041 13.3799 53.2496 13.8774C52.5882 14.1004 52.5195 15.1039 53.241 15.284Z" fill="#474035"/>
<path d="M46.7651 29.6761C47.8301 28.6898 48.5687 27.4804 48.981 26.1424C49.8914 27.8921 53.1636 28.7241 54.7869 28.3124C56.0151 27.0773 56.7108 25.8079 56.5991 24.0239C56.5647 23.4664 56.4617 22.9089 56.3071 22.3686C59.4591 23.1662 63.3326 22.0941 64.1743 18.6119C64.1829 18.5948 64.1571 18.5776 64.1399 18.5948C61.6149 21.0906 58.669 22.4801 55.328 20.3273C54.4777 19.7784 53.8078 20.9791 54.5378 21.6824C55.6887 22.7974 55.9034 26.2282 54.7525 28.2781C53.0949 27.9779 50.3208 27.0344 49.3331 23.5694C49.0669 22.6345 47.8559 22.8832 47.873 24.2212C47.727 25.7222 47.2289 27.206 46.3271 28.4239C45.1504 30.0106 43.802 30.2164 42.0328 30.1564C45.8032 28.6983 42.8315 22.7889 45.3652 20.3873C46.1983 19.5982 44.867 18.286 44.1112 19.1351C41.1911 22.4458 44.8412 27.1373 41.5862 30.165C41.5174 30.2508 41.4401 30.388 41.5862 30.5166C43.0978 31.786 45.451 30.8854 46.7651 29.6761Z" fill="#474035"/>
<path d="M44.3346 18.0287C44.2229 18.3718 44.5665 18.6376 44.8843 18.5776C47.8559 17.9944 50.4325 16.8108 52.4509 14.5122C52.6999 14.2291 52.5625 13.6287 52.1073 13.6802C48.4056 14.0919 45.8462 12.1792 44.6695 8.72275C44.8843 7.9251 45.1849 7.26468 45.5542 6.74149C44.9787 8.33679 45.6401 10.3952 47.1087 11.5703C49.2387 13.2685 52.8545 13.217 53.4128 10.0007C53.8852 7.29041 51.6521 4.12553 48.7234 5.67795C46.6707 6.75864 46.7909 10.1379 49.3761 10.3352C50.3982 10.4124 51.4546 9.82917 51.5405 8.73132C51.6178 7.72783 50.7589 7.05025 49.9344 7.78787C49.5307 8.1481 50.1319 8.74848 50.5356 8.38825C50.7675 8.56836 50.7847 8.75705 50.5957 8.95432C50.527 9.23736 50.3381 9.4089 50.0289 9.46894C49.7197 9.58901 49.3332 9.54613 49.0326 9.43463C47.8559 9.01436 47.8731 7.51341 48.6804 6.73291C49.462 5.97814 50.9135 5.9953 51.7122 6.70718C52.4079 7.34187 52.614 8.52548 52.5625 9.42605C52.4337 11.819 50.1577 12.3165 48.3283 11.3987C46.6449 10.5496 45.1591 8.12236 45.8376 6.38126C48.1737 3.67096 52.657 5.06041 55.7918 6.74149C59.4506 8.70559 62.7401 10.4724 66.8282 11.4674C70.4784 12.3508 74.6353 13.3371 78.3113 12.0849C80.948 11.1843 83.0522 8.98005 83.181 6.10679C83.2927 3.72242 81.7982 1.33804 79.3505 0.90062C77.1604 0.506083 74.4292 1.6125 73.8881 3.97115C73.2955 6.60425 75.623 8.54263 78.0708 8.24244C80.3554 7.96798 82.408 5.90095 80.8277 3.66238C79.2131 1.37235 75.8721 3.14777 76.7224 5.72941C76.9714 6.48418 78.1738 6.16683 77.9248 5.39491C77.4352 3.85107 81.1369 4.40857 79.6597 6.14968C79.2732 6.60425 78.4659 6.84441 77.899 6.94733C75.1077 7.41906 73.9053 3.89396 76.3702 2.41873C79.6339 0.454621 82.9148 3.77388 82.0216 7.1446C80.9566 11.1672 76.353 11.9048 72.8059 11.596C68.8036 11.2444 64.4063 10.198 60.799 8.43971C56.874 6.51849 51.5061 1.92127 46.894 4.40857C44.6781 5.60076 43.5788 8.0366 43.5015 10.4639C43.4586 11.7847 43.6904 13.097 43.9481 14.3835C44.1714 15.5156 44.6867 16.888 44.3346 18.0287ZM44.5321 9.30598C44.9873 12.6081 47.6584 14.6322 50.9049 14.7008C49.3332 16.1761 47.4523 17.0681 45.3223 17.5741C45.391 16.7593 45.1763 15.9102 45.0217 15.1211C44.6352 13.2256 44.1714 11.2444 44.5321 9.30598Z" fill="#474035"/>
<path d="M99.9632 3.71374C92.6027 5.67785 86.8827 11.1756 79.694 13.5257C71.7753 16.1074 62.2848 14.8637 55.3194 10.2493C55.2937 10.2322 55.2765 10.2751 55.2937 10.2836C59.5279 13.2341 63.9596 15.0696 69.1385 15.4984C74.3175 15.9272 79.3848 14.8809 84.057 12.6509C89.6912 9.94914 94.7499 5.86654 100.951 4.47709C103.862 3.82524 109.102 3.30205 110.553 6.71566C111.446 8.82557 110.347 11.7074 108.088 12.3078C105.271 13.054 104.378 10.3951 104.618 9.65753C105.005 7.39323 108.191 8.02792 106.86 10.0435C106.319 10.5238 107.118 11.3214 107.659 10.8411C108.878 9.75188 108.724 7.65911 107.032 7.12735C105.219 6.56127 103.631 8.19946 103.485 9.92341C103.313 11.9133 104.988 13.3885 106.877 13.5429C109.144 13.7316 111.051 11.9647 111.652 9.88053C113.731 2.74455 104.404 2.53013 99.9632 3.71374Z" fill="#474035"/>
<path d="M83.7392 9.80345C83.4901 10.4553 84.4864 10.7898 84.8042 10.2409C85.5858 8.91145 95.2222 2.85616 99.2675 2.81328C99.4221 2.81328 99.4392 2.62459 99.3018 2.53882C97.8761 1.62967 94.8529 1.08932 92.826 1.30374C91.4174 1.45813 88.5574 2.2129 87.4924 3.70528C86.5992 2.1014 84.9845 1.07217 83.0607 1.08932C83.0178 1.08932 83.0006 1.13221 83.0092 1.16651C82.992 1.17509 82.9834 1.20082 83.0006 1.21798C84.7784 3.90254 84.8729 6.82727 83.7392 9.80345ZM83.1294 1.21798C84.933 1.66397 86.4961 3.10489 86.7968 4.94893C86.9084 5.65223 87.501 5.50642 87.5526 5.37777C89.1415 1.38951 97.0602 1.83551 98.6577 2.47878C95.9179 2.35013 87.501 6.05535 85.3281 8.2253C85.7403 5.6265 85.1391 3.27643 83.1294 1.21798Z" fill="#474035"/>
<path d="M9.81687 73.2896C9.82546 73.341 9.90275 73.3239 9.90275 73.281C9.61933 70.3734 9.61074 67.5345 8.59728 64.747C7.50652 61.7451 5.70291 59.1206 3.78764 56.5989C2.44781 54.8321 -0.0428922 56.942 1.45153 58.4001C5.75444 62.6113 8.812 67.2514 9.81687 73.2896Z" fill="#474035"/>
<path d="M2.15578 66.3166C2.93734 66.8312 3.64161 67.4487 4.30294 68.1091C5.71147 69.5243 7.18872 71.3255 7.73839 73.2896C7.75557 73.341 7.83287 73.3239 7.82428 73.2639C7.16295 69.5501 5.763 66.531 3.35819 63.6234C3.00605 63.1946 2.40485 63.1517 1.89812 63.2375C1.80364 63.2546 1.70917 63.2718 1.61469 63.2889C0.936188 63.409 0.712883 64.1466 0.79877 64.7213C0.936188 65.6647 1.42574 65.8363 2.15578 66.3166Z" fill="#474035"/>
<path d="M4.95568 73.1008C5.76301 73.4525 6.59611 73.8727 7.35191 74.3102C7.39485 74.3359 7.42921 74.2844 7.41203 74.2501C6.93107 73.2724 6.34704 72.4061 5.62559 71.5656C4.95568 70.7765 3.98516 69.6958 2.91158 69.5071C0.7043 69.1297 0.317811 72.2346 2.50791 72.509C3.38396 72.6205 4.12258 72.732 4.95568 73.1008Z" fill="#474035"/>
<path d="M12.6683 91.5327C16.1295 84.654 17.6669 77.0892 16.9454 69.4129C16.9368 69.3614 16.8681 69.3614 16.8681 69.4129C16.6792 76.8576 14.5234 83.9936 10.4524 90.2376C9.53343 91.627 11.9297 93.0079 12.6683 91.5327Z" fill="#474035"/>
<path d="M18.5343 84.6625C18.9551 84.8769 19.1183 84.9027 19.5907 84.7998C20.2005 84.6711 20.5698 84.0536 20.5955 83.4789C20.9047 78.1012 19.8741 73.2209 18.3625 68.1005C18.3453 68.0491 18.268 68.0662 18.2766 68.1263C19.1355 73.0151 18.7232 78.2556 17.8901 83.1187C17.8042 83.6933 17.9502 84.3623 18.5343 84.6625Z" fill="#474035"/>
<path d="M19.6336 67.1228C19.5821 67.0542 19.479 67.1314 19.4962 67.2C20.355 70.159 20.5096 73.4097 21.5059 76.3087C21.9182 77.5009 23.8592 77.3722 23.7991 75.9999C23.6531 72.7149 21.6262 69.6101 19.6336 67.1228Z" fill="#474035"/>
<path d="M14.0681 28.8184C13.3725 22.0598 9.73947 16.5534 5.15313 11.7418C5.11019 11.6989 5.05866 11.759 5.09301 11.8018C8.98367 16.6392 10.1174 22.7888 10.2891 28.8184C10.3493 31.28 14.3086 31.1942 14.0681 28.8184Z" fill="#474035"/>
<path d="M2.97172 12.0162C5.38513 16.9994 5.51396 22.3428 5.59125 27.7376C5.62561 29.8132 8.84635 29.8047 8.81199 27.7376C8.72611 21.9568 6.03786 16.7421 3.04902 11.9733C3.01466 11.9218 2.94595 11.9647 2.97172 12.0162Z" fill="#474035"/>
<path d="M4.47463 26.5455C5.13596 24.5728 4.53475 22.3085 4.17403 20.3187C3.71883 17.7628 2.81702 15.3955 1.88086 12.9854C1.86369 12.934 1.78639 12.9511 1.79498 13.0112C2.28453 14.9667 2.44771 17.008 2.43912 19.0236C2.43054 20.7389 2.55937 23.3806 1.37413 24.7529C-0.63561 27.0687 3.52129 29.3759 4.47463 26.5455Z" fill="#474035"/>
<path d="M4.20845 4.20273C4.60353 3.62808 4.41458 2.71035 4.02809 2.18716C3.40112 1.32947 2.24165 0.797703 1.19383 0.832011C1.09077 0.832011 0.987707 0.857741 0.901821 0.900626C0.858877 0.986395 0.833112 1.08932 0.833112 1.19224C0.798757 2.23862 1.33125 3.3965 2.18153 4.02262C2.70544 4.40858 3.63301 4.59727 4.20845 4.20273Z" fill="#474035"/>
<path d="M16.5503 56.7276C15.8546 55.5955 15.6227 54.4376 15.3049 53.1682C15.1246 52.4478 14.1197 52.5078 13.905 53.1682C13.4068 54.7206 14.197 56.1444 15.1589 57.3623C16.8337 59.498 18.852 61.0847 18.5171 64.0866C18.5171 64.1123 18.5514 64.1123 18.56 64.0952C19.3416 62.6371 19.2901 61.3592 18.5772 59.8582C18.0275 58.7346 17.203 57.7912 16.5503 56.7276Z" fill="#474035"/>
<path d="M30.5498 41.5293C30.4209 41.3835 30.2835 41.4607 30.1976 41.5293C27.1744 44.7713 22.4765 41.1262 19.1526 44.0509C18.3024 44.8057 19.6164 46.1351 20.4066 45.3031C22.8114 42.7729 28.729 45.7405 30.1891 41.9753C30.2492 43.7421 30.043 45.0887 28.4541 46.2637C27.2346 47.1643 25.7487 47.6618 24.2543 47.8076C22.9145 47.7904 22.6654 48.9998 23.6016 49.2656C27.08 50.252 28.0161 53.0309 28.3167 54.6777C26.264 55.827 22.8286 55.6125 21.7121 54.4632C21.0078 53.7342 19.8054 54.4032 20.3551 55.2523C22.5108 58.5887 21.1194 61.5306 18.6202 64.0522C18.603 64.0694 18.6202 64.0951 18.6373 64.0865C22.1329 63.2374 23.2065 59.3692 22.3992 56.2301C22.9402 56.393 23.4985 56.4874 24.0568 56.5217C25.8346 56.6332 27.1143 55.947 28.3511 54.712C28.7633 53.0909 27.9302 49.8231 26.1782 48.914C27.518 48.5023 28.729 47.7647 29.7167 46.7011C30.9277 45.3889 31.8295 43.0388 30.5498 41.5293Z" fill="#474035"/>
<path d="M0.884652 79.2334C1.32267 81.6778 3.71032 83.1702 6.09796 83.0587C8.97515 82.93 11.1824 80.8287 12.0842 78.1956C13.3382 74.5246 12.3505 70.3649 11.4659 66.7283C10.4696 62.6371 8.70032 59.3521 6.73352 55.7069C5.05014 52.5764 3.65878 48.0907 6.37279 45.7663C8.11629 45.0887 10.5469 46.5725 11.3972 48.2536C12.3161 50.0805 11.818 52.3448 9.42176 52.4735C8.52854 52.5249 7.33472 52.3191 6.69916 51.6243C5.97772 50.8353 5.96913 49.3772 6.72493 48.5967C7.50649 47.7905 9.00951 47.7819 9.43035 48.9483C9.542 49.2485 9.58495 49.6345 9.46471 49.9433C9.40459 50.252 9.23281 50.4407 8.94939 50.5093C8.74326 50.698 8.55431 50.6809 8.38254 50.4493C8.74326 50.0462 8.14206 49.4458 7.78133 49.8489C7.0513 50.6723 7.72121 51.53 8.72608 51.4528C9.82543 51.367 10.4095 50.3121 10.3322 49.2914C10.1346 46.7098 6.75928 46.5983 5.66853 48.6396C4.11398 51.5643 7.28319 53.7943 9.9972 53.3226C13.2179 52.7651 13.2695 49.1456 11.5689 47.0271C10.3923 45.5605 8.33959 44.8915 6.73352 45.4747C7.25742 45.1059 7.91875 44.8057 8.71749 44.5913C12.1787 45.7663 14.094 48.3222 13.6817 52.0189C13.6302 52.4735 14.2314 52.6107 14.5148 52.362C16.8252 50.355 18.0104 47.7733 18.5858 44.8057C18.646 44.4884 18.3883 44.1539 18.0362 44.2568C16.8939 44.617 15.5197 44.1024 14.386 43.8708C13.0977 43.6135 11.7836 43.3819 10.461 43.4248C8.0304 43.502 5.59123 44.5999 4.39741 46.8127C1.9067 51.4099 6.51021 56.7705 8.41689 60.6815C10.1776 64.2838 11.2254 68.6838 11.5775 72.672C11.8867 76.2143 11.1481 80.8115 7.12001 81.875C3.74467 82.767 0.412277 79.4907 2.38766 76.2314C3.8735 73.7699 7.39484 74.9706 6.92247 77.7581C6.82799 78.3328 6.57892 79.1304 6.12372 79.5164C4.38023 81.0002 3.82197 77.295 5.36792 77.7839C6.1409 78.024 6.45868 76.8318 5.70288 76.5831C3.1177 75.7254 1.34844 79.0618 3.63302 80.6829C5.86606 82.261 7.93593 80.2197 8.21935 77.9297C8.51996 75.4853 6.57033 73.1609 3.94221 73.7527C1.59751 74.3188 0.498163 77.0463 0.884652 79.2334ZM15.1418 44.9515C15.932 45.1059 16.7736 45.3203 17.5981 45.2517C17.1 47.3788 16.2068 49.2571 14.721 50.8267C14.6522 47.5932 12.6253 44.9172 9.3187 44.4626C11.2597 44.111 13.2437 44.5741 15.1418 44.9515Z" fill="#474035"/>
<path d="M3.71888 99.8265C2.53365 104.261 2.73978 113.567 9.88553 111.5C11.9726 110.891 13.7418 108.995 13.5529 106.731C13.3983 104.844 11.921 103.171 9.92847 103.343C8.21075 103.489 6.56173 105.076 7.12858 106.885C7.66107 108.566 9.7567 108.729 10.8475 107.511C11.3284 106.971 10.5297 106.173 10.0487 106.714C8.03038 108.043 7.40341 104.861 9.66223 104.475C10.4008 104.244 13.0633 105.127 12.3161 107.94C11.7149 110.205 8.82913 111.302 6.71632 110.402C3.29804 108.952 3.82195 103.72 4.47469 100.813C5.86605 94.6203 9.96283 89.5685 12.6597 83.9421C14.9013 79.2762 15.9405 74.2159 15.5111 69.044C15.0817 63.8721 13.2437 59.4465 10.2892 55.2181C10.272 55.1923 10.2377 55.2181 10.2548 55.2438C14.8755 62.1997 16.1295 71.6771 13.5357 79.585C11.191 86.7639 5.68568 92.4761 3.71888 99.8265Z" fill="#474035"/>
<path d="M9.81686 83.6247C6.8366 84.7569 3.90787 84.6539 1.21104 82.8871C1.19386 82.8699 1.16809 82.8871 1.1595 82.8957C1.12515 82.8871 1.08221 82.9128 1.08221 82.9471C1.07362 84.8684 2.10425 86.4808 3.70174 87.3728C2.21591 88.4364 1.45152 91.2839 1.29692 92.6991C1.08221 94.7232 1.62329 97.7509 2.53369 99.166C2.61957 99.3033 2.80852 99.2861 2.80852 99.1317C2.85147 95.092 8.92364 85.4687 10.2463 84.6882C10.8046 84.3795 10.461 83.3846 9.81686 83.6247ZM2.47357 98.5228C1.82942 96.9275 1.38281 89.0196 5.37653 87.4329C5.50536 87.3814 5.65136 86.7896 4.9471 86.6781C3.10913 86.3779 1.65765 84.8083 1.21104 83.0158C3.27231 85.0227 5.6256 85.6231 8.21937 85.2114C6.05503 87.3814 2.34474 95.7868 2.47357 98.5228Z" fill="#474035"/>
<path d="M0 0L0 130H1.14229L1.14229 1.14073L134 1.14073V0L0 0Z" fill="#474035"/>
</svg>
