<svg width="27" height="26" viewBox="0 0 27 26" fill="none" xmlns="http://www.w3.org/2000/svg">
<g clip-path="url(#clip0_217_3937)">
<path d="M13.5 25.5C20.9558 25.5 27 19.7916 27 12.75C27 5.70837 20.9558 0 13.5 0C6.04416 0 0 5.70837 0 12.75C0 19.7916 6.04416 25.5 13.5 25.5Z" fill="#D7BA31"/>
<path d="M10.772 20.094C17.366 20.094 20.972 14.9354 20.972 10.4606C20.972 10.3133 20.968 10.1679 20.962 10.0224C21.662 9.54453 22.27 8.94764 22.75 8.26953C22.108 8.53964 21.416 8.72097 20.692 8.80219C21.432 8.38286 22 7.71986 22.268 6.93031C21.576 7.31753 20.808 7.60086 19.992 7.75197C19.338 7.09464 18.406 6.68286 17.376 6.68286C15.396 6.68286 13.79 8.19964 13.79 10.0677C13.79 10.3341 13.822 10.591 13.884 10.8403C10.904 10.6986 8.26203 9.35186 6.49603 7.30242C6.18803 7.80297 6.01003 8.38475 6.01003 9.00431C6.01003 10.1792 6.64203 11.2162 7.60603 11.8225C7.01803 11.8055 6.46603 11.6525 5.98203 11.3994C5.98203 11.4126 5.98203 11.4278 5.98203 11.4429C5.98203 13.0824 7.21803 14.4519 8.85803 14.7616C8.55603 14.8391 8.24003 14.8806 7.91403 14.8806C7.68403 14.8806 7.45803 14.8599 7.24003 14.8202C7.69603 16.1651 9.02003 17.1435 10.588 17.1719C9.36003 18.0804 7.81603 18.6206 6.13603 18.6206C5.84603 18.6206 5.56203 18.6055 5.28003 18.5734C6.86403 19.533 8.74803 20.094 10.772 20.094Z" fill="#08080B"/>
</g>
<defs>
<clipPath id="clip0_217_3937">
<rect width="27" height="25.5" fill="white"/>
</clipPath>
</defs>
</svg>
