<svg width="29" height="129" viewBox="0 0 29 129" fill="none" xmlns="http://www.w3.org/2000/svg">
<path d="M19.4047 32.0276C19.4047 26.2228 19.4047 0 19.4047 0H15.617H13.3741H9.58817C9.58817 0 9.58817 26.2228 9.58817 32.0276C9.58817 37.8325 0 44.8792 0 53.1524C0 61.4236 0 121.26 0 123.37C0 125.481 1.24024 129 4.01931 129C5.91122 129 10.5724 129 13.3777 129C14.7024 129 15.6206 129 15.6206 129C18.4258 129 23.0849 129 24.9771 129C27.7583 129 29 125.481 29 123.37C29 121.26 29 61.4232 29 53.1524C28.9997 44.8792 19.4047 37.8362 19.4047 32.0276ZM11.7069 41.4326C11.0862 42.3972 10.3926 43.6136 9.63878 45.0171C8.87606 46.4242 8.15324 48.0642 7.4182 49.8434C7.13806 50.7528 6.85078 51.7056 6.61053 52.6601C6.6019 53.6718 6.31997 54.4179 6.44292 55.6875C6.51735 58.0417 6.59862 60.5179 6.68139 63.0808C6.83024 68.2083 6.85792 73.6808 6.89603 79.1488C6.88561 90.0887 6.59505 101.033 6.14552 109.237C5.94844 113.34 5.62513 116.756 5.4727 119.15C5.28604 121.544 5.13034 122.914 5.13034 122.914C5.13034 122.914 4.97315 121.544 4.7862 119.15C4.63407 116.757 4.31046 113.34 4.11338 109.237C3.66385 101.033 3.37299 90.0887 3.36287 79.1488C3.39741 73.6805 3.42509 68.2083 3.57722 63.0808C3.66028 60.5182 3.74155 58.0417 3.81598 55.6875C3.77966 54.5951 4.14107 53.111 4.34708 51.9299C4.7466 50.8178 5.18929 49.7861 5.61143 48.814C6.12527 47.9202 6.61112 47.0639 7.07792 46.2511C7.60903 45.509 8.11215 44.8083 8.58252 44.1429C9.56138 42.8594 10.4313 41.7748 11.1907 40.9284C12.6917 39.22 13.6551 38.3814 13.6551 38.3814C13.6551 38.3814 12.9037 39.4738 11.7069 41.4326Z" fill="#EBD08A"/>
</svg>
