<svg width="27" height="26" viewBox="0 0 27 27" fill="none" xmlns="http://www.w3.org/2000/svg">
<g clip-path="url(#clip0_217_3921)">
<path d="M13.5 27C20.9558 27 27 20.9558 27 13.5C27 6.04416 20.9558 0 13.5 0C6.04416 0 0 6.04416 0 13.5C0 20.9558 6.04416 27 13.5 27Z" fill="#D7BA31"/>
<path d="M22.124 9.16795C21.916 8.39395 21.308 7.78395 20.532 7.57595C19.128 7.19995 13.5 7.19995 13.5 7.19995C13.5 7.19995 7.872 7.19995 6.468 7.57595C5.694 7.78395 5.084 8.39195 4.876 9.16795C4.5 10.572 4.5 13.5 4.5 13.5C4.5 13.5 4.5 16.428 4.876 17.832C5.082 18.606 5.692 19.216 6.468 19.424C7.872 19.8 13.5 19.8 13.5 19.8C13.5 19.8 19.128 19.8 20.532 19.424C21.306 19.216 21.916 18.608 22.124 17.832C22.5 16.428 22.5 13.5 22.5 13.5C22.5 13.5 22.5 10.572 22.124 9.16795ZM11.7 16.2V10.8L16.376 13.5L11.7 16.2Z" fill="#08080B"/>
</g>
<defs>
<clipPath id="clip0_217_3921">
<rect width="27" height="27" fill="white"/>
</clipPath>
</defs>
</svg>
